<svg version="1.1" viewBox="0 0 512 512" xmlns="http://www.w3.org/2000/svg"><circle cx="256" cy="256" r="168.79" id="background"/><path id="questionMark" d="m238.23 372.16c-12.153-6.0758-16.959-20.531-10.805-32.495 9.1733-17.835 35.736-18.566 45.467-1.2522 12.333 21.944-11.622 45.267-34.662 33.748zm-9.3245-88.997c0.95955-23.737 6.2665-32.204 29.803-47.548 15.217-9.9202 22.36-17.428 24.58-25.835 9.8491-37.294-48.477-50.772-60.103-13.889-4.0676 12.904-45.543 12.32-43.942-0.61858 3.6718-29.66 25.341-51.008 57.452-56.6 89.751-15.629 132.24 69.908 58.249 117.26-19.216 12.299-23.921 19.332-24.137 36.086-0.0809 6.2732-0.0809 6.2732-21.298 6.2779-21.217 4e-3 -21.217 4e-3 -20.605-15.136z" style="stroke-width:1.4772"/></svg>
