<svg version="1.1" viewBox="0 0 194 194" xmlns="http://www.w3.org/2000/svg"><rect width="194" height="194" style="display:none;fill:#800080;stop-color:#000000;stroke-width:0"/><g transform="translate(26.25 24.566)"><g stroke-width="0"><g><path d="m44.75-1.4569-3.3984 2.4883c-9.2796 5.4182-18.027 11.109-28.375 15.979-0.37486 0.17636 0.68971-4.6567 0.31055-4.4824-0.36178 0.16665-2.1672 5.3398-2.5332 5.5039-1.3963 0.90965-2.7105 1.8756-3.9629 2.8906-0.13626 0.11059-2.7245-0.82254-2.8594-0.71094-0.123 0.10184 2.2079 1.2488 2.0859 1.3516-9.4539 7.9656-15.608 18.735-28.893 28.895 6.5937-2.2995 19.37-14.369 26.932-20.512l-8.9414 25.205 6.334-9.041c0.82972-1.2983 1.7513-2.5457 2.5059-3.8867l0.20898-0.23828a72.5 72.5 0 0 1 10.551-16.678l2.1035 1.5391 0.67578-0.92188-2.0195-1.4766a72.5 72.5 0 0 1 16.98-14.443l0.13672-0.1543c0.43742-0.32693 0.86107-0.67016 1.2637-1.0449l9.2656-7.6504z" style="-inkscape-stroke:none;fill:#f5af0f;font-variation-settings:normal;stop-color:#000000;stroke-width:0"/><path d="m147.74 86.862-0.45569-4.1873c-0.0525-10.745-0.60729-21.167 0.3497-32.563 0.0347-0.41281 3.688 2.9257 3.7266 2.5102 0.0366-0.39662-3.5408-4.5468-3.4999-4.9458-0.0896-1.6641-0.26912-3.2852-0.52192-4.8773-0.0276-0.17328 2.0746-1.9482 2.0454-2.1208-0.0267-0.15743-2.1854 1.2877-2.2134 1.1307-2.1715-12.17-8.4213-22.885-10.577-39.469-1.3055 6.86 2.7595 23.959 4.2978 33.579l-17.358-20.346 4.6628 10.006c0.7095 1.3677 1.329 2.7895 2.1131 4.1135l0.10187 0.30013a72.5 72.5 0 0 1 9.1679 17.476l-2.3846 1.0522 0.46047 1.0462 2.2885-1.0107a72.5 72.5 0 0 1 4.0181 21.927l0.0653 0.19556c0.0644 0.54227 0.14983 1.0808 0.27308 1.6168l1.9926 11.849z" style="-inkscape-stroke:none;fill:#f5af0f;font-variation-settings:normal;stop-color:#000000;stroke-width:0"/><path d="m19.759 131.9 3.8541 1.699c9.3321 5.3273 18.635 10.058 28.025 16.584 0.34016 0.23646-4.3777 1.7311-4.0372 1.9723 0.32521 0.22998 5.708-0.79301 6.0331-0.55814 1.486 0.75444 2.9796 1.4095 4.4848 1.9866 0.1639 0.0627 0.64992 2.7708 0.814 2.8318 0.14968 0.0556-0.02246-2.5365 0.12752-2.4823 11.625 4.2045 24.029 4.1494 39.47 10.574-5.2882-4.5606-22.129-9.5898-31.229-13.068l26.299-4.859-10.997-0.96487c-1.5392-0.0694-3.0803-0.24381-4.6189-0.22679l-0.31085-0.0618a72.5 72.5 0 0 1-19.719-0.79838l0.28111-2.5912-1.1363-0.12432-0.26897 2.4872a72.5 72.5 0 0 1-20.999-7.4838l-0.20198-0.0412c-0.50183-0.21534-1.0109-0.41062-1.5368-0.57191l-11.258-4.1991z" style="-inkscape-stroke:none;fill:#f5af0f;font-variation-settings:normal;stop-color:#000000;stroke-width:0"/></g><path d="m164.92 53.786c-6.4184-2.7512-18.326-15.678-25.445-22.33l7.1719 25.764-5.6904-9.4595c-1.0194-1.8693-2.2316-3.6469-2.8984-5.6851-1.5595-3.9976-3.5153-7.8371-5.7683-11.488l-1.7175 1.1309-0.648-0.98396 1.7365-1.1432c-1.998-3.1172-4.2398-6.0773-6.6877-8.8556-2.6401-2.9815-5.5338-5.7348-8.6276-8.2428-1.7117-1.399-3.6128-2.569-5.1318-4.1938l-8.7113-8.2744-1.4443-2.7177 3.2178 2.7176c8.8817 6.0486 17.214 12.333 27.199 17.909 0.36178 0.20194-0.36592-4.6932 2.3e-4 -4.4931 0.34937 0.19133 1.7929 5.4771 2.1466 5.6663 1.3298 1.0043 2.5725 2.059 3.7516 3.1583 0.12827 0.11978 2.7748-0.63299 2.9016-0.51232 0.11575 0.11011-2.2881 1.0938-2.1736 1.2047 8.8787 8.6021 14.271 19.773 26.819 30.829z" display="none" fill="#f00" stop-color="#000000" style="-inkscape-stroke:none;font-variation-settings:normal"/><g style="display:none"><rect x="-1.662" y="-3.433" width="144.8" height="148.39" style="display:none;fill:#f00;stop-color:#000000;stroke-width:0"/><g fill="#f5af0f"><path d="m81.493-8.2434-4.1456 0.74465c-10.716 0.79753-21.074 2.0737-32.509 1.9093-0.41423-0.00599 2.6636-3.8811 2.2464-3.8908-0.39822-0.00897-4.2913 3.8469-4.6922 3.8339-1.6539 0.2048-3.2576 0.49688-4.8283 0.85949-0.17096 0.039597-2.0864-1.9359-2.2565-1.8948-0.15521 0.03755 1.4347 2.0911 1.28 2.13-11.99 3.0102-22.246 9.9884-38.64 13.289 6.9341 0.82659 23.711-4.414 33.201-6.6158l-19.093 18.726 9.6579-5.3468c1.8175-1.1092 3.7556-2.0425 5.3522-3.4743 3.3936-2.7177 7.0581-5.0932 10.889-7.1471 1.0907-0.58408 2.1986-1.1354 3.3185-1.6613l1.0119 1.752 1.0202-0.58888-0.95735-1.6584c2.1953-0.98689 4.4388-1.8667 6.7199-2.6351 3.7771-1.262 7.6601-2.1995 11.593-2.8246 2.1818-0.35577 4.4128-0.41836 6.5408-1.0659l11.682-2.81z" stop-color="#000000" style="-inkscape-stroke:none;display:inline;fill:#008080;font-variation-settings:normal"/><path d="m1.0513 104.49-2.7177-1.4444 2.7177 3.2178c6.0486 8.8816 12.333 17.214 17.909 27.199 0.20193 0.36176-4.6932-0.36638-4.4931-1.7e-4 0.19134 0.34936 5.4771 1.793 5.6663 2.1466 1.0043 1.3299 2.0589 2.5729 3.1582 3.752 0.11977 0.12827-0.63286 2.7746-0.51214 2.9014 0.1101 0.11574 1.0933-2.2882 1.2043-2.1737 8.6021 8.8788 19.774 14.271 30.83 26.819-2.7512-6.4184-15.678-18.327-22.33-25.445l25.764 7.1718-9.4594-5.6899c-1.8693-1.0194-3.6464-2.2316-5.6846-2.8983-4.0504-1.5801-7.9398-3.5657-11.634-5.8562-2.279-1.4147-4.4732-2.9636-6.5794-4.625l1.3619-1.3625-0.83301-0.83299-1.455 1.4555c-0.74519-0.60741-1.4797-1.2283-2.201-1.8639-2.9815-2.6401-5.7347-5.5336-8.2426-8.6274-1.399-1.7117-2.5686-3.6128-4.1934-5.132z" stop-color="#000000" style="-inkscape-stroke:none;display:inline;fill:#008080;font-variation-settings:normal"/><path d="m160.79 36.812c-4.1829 5.5918-8.0321 22.741-10.871 32.061l-6.6707-25.898-0.19826 11.037c0.0518 2.1286-0.10928 4.2741 0.33245 6.3726 0.64829 4.2417 0.87414 8.5447 0.74871 12.833l-2.0528-0.12065-0.0692 1.1762 2.0754 0.12181c-0.17169 3.6986-0.63311 7.383-1.3642 11.013-0.79563 3.9021-1.925 7.7334-3.3503 11.452-0.78281 2.0674-1.8442 4.0311-2.3473 6.1979l-3.4068 11.521 0.10798 3.0758 1.4279-3.9624c4.6674-9.679 8.7412-19.287 14.6-29.109 0.21234-0.35578 2.0296 4.2474 2.2467 3.891 0.20691-0.34039-1.1859-5.6398-0.97416-5.9805 0.64953-1.5346 1.1983-3.0694 1.6698-4.6109 0.0512-0.16786 2.7195-0.83916 2.769-1.0071 0.0452-0.15323-2.5285 0.19684-2.4847 0.04346 3.388-11.889 2.4721-24.259 7.8119-40.109z" stop-color="#000000" style="-inkscape-stroke:none;display:inline;fill:#008080;font-variation-settings:normal"/><path d="m101.57-2.7676-4.1971-0.3537c-10.557-2.0032-20.893-3.4514-31.895-6.5697-0.39857-0.113 3.5773-3.0595 3.1768-3.1768-0.38233-0.11173-5.1407 2.6052-5.5246 2.4888-1.6505-0.23023-3.2752-0.36317-4.8862-0.41946-0.17538-6e-3 -1.5143-2.4099-1.6893-2.4142-0.15964-0.0039 0.84457 2.3912 0.68512 2.3887-12.361-0.19566-24.073 3.8905-40.763 2.8355 6.4839 2.5931 24.045 1.8731 33.782 2.2026l-23.289 13.146 10.713-2.6649c2.0426-0.60097 4.1563-1.0009 6.069-1.9706 3.9814-1.7468 8.1358-3.0929 12.368-4.0853 1.2047-0.28187 2.4175-0.52771 3.6354-0.74579l0.52397 1.9542 1.1379-0.30476-0.4955-1.8497c2.3759-0.38509 4.7707-0.65422 7.173-0.80603 3.9751-0.24141 7.9684-0.14199 11.929 0.27224 2.1995 0.22104 4.3707 0.73801 6.5938 0.66327l12.011 0.30915z" stop-color="#000000" style="-inkscape-stroke:none;display:inline;fill:#008080;font-variation-settings:normal"/><path d="m-5.3024 85.3-2.2513-2.0985 1.7923 3.8115c3.5438 10.145 7.4576 19.82 10.259 30.908 0.10142 0.4017-4.4384-1.5686-4.3399-1.163 0.094395 0.38697 4.8264 3.1494 4.9176 3.54 0.62588 1.5445 1.3229 3.0181 2.0795 4.4416 0.08249 0.15489-1.3294 2.5163-1.2456 2.67 0.076389 0.14029 1.6483-1.9273 1.7258-1.7879 6.011 10.803 15.406 18.902 22.838 33.885-0.99624-6.9118-10.401-21.76-14.984-30.358l23.03 13.596-7.6644-7.9443c-1.5418-1.4685-2.9446-3.0993-4.7408-4.2709-3.5034-2.5746-6.7464-5.4992-9.7214-8.6676-1.8352-1.9564-3.5537-4.0204-5.1581-6.1703l1.6681-0.9636-0.58903-1.0202-1.7821 1.0294c-0.56259-0.77958-1.1113-1.5694-1.6436-2.37-2.1966-3.3218-4.1071-6.8293-5.7288-10.467-0.90831-2.0154-1.546-4.1545-2.7223-6.0424z" stop-color="#000000" style="-inkscape-stroke:none;display:inline;fill:#008080;font-variation-settings:normal"/><path d="m166.51 61.276c-5.4876 4.3187-13.644 19.887-18.799 28.155l0.2595-26.742-3.0482 10.61c-0.50088 2.0694-1.2118 4.1002-1.3282 6.2415-0.47164 4.265-1.3672 8.4798-2.5981 12.589l-1.9516-0.64784-0.37125 1.1182 1.9732 0.65482c-1.1231 3.5281-2.5224 6.9675-4.1682 10.285-1.7784 3.5632-3.8609 6.9716-6.2002 10.195-1.2912 1.7943-2.8247 3.4165-3.8715 5.3792l-6.2726 10.247-0.69176 2.9989 2.4048-3.4579c7.0135-8.1412 13.435-16.368 21.637-24.338 0.29719-0.2887 0.86119 4.6279 1.1631 4.3399 0.28795-0.27524 0.31423-5.7546 0.6069-6.0289 1.0246-1.3142 1.9519-2.6546 2.8063-4.0217 0.0929-0.14888 2.8441-0.1067 2.9354-0.25611 0.0833-0.13631-2.4933-0.46429-2.4113-0.60112 6.3496-10.607 8.6666-22.793 17.927-36.72z" stop-color="#000000" style="-inkscape-stroke:none;display:inline;fill:#008080;font-variation-settings:normal"/><path d="m119.55 7.7192-3.9625-1.4279c-9.6791-4.6673-19.288-8.7413-29.108-14.601-0.35574-0.2123 4.2473-2.0293 3.8908-2.2464-0.34038-0.20688-5.6398 1.1859-5.9805 0.97414-1.5347-0.64958-3.0696-1.1985-4.6112-1.6698-0.16785-0.05119-0.83893-2.7197-1.0068-2.7692-0.15319-0.04508 0.19692 2.5283 0.04354 2.4846-11.889-3.3882-24.259-2.4725-40.108-7.8114 5.5918 4.1829 22.741 8.0326 32.061 10.871l-25.898 6.6707 11.037 0.1985c2.1286-0.051824 4.2737 0.10893 6.3723-0.33271 4.2978-0.65679 8.6591-0.88179 13.004-0.74512 1.2367 0.039541 2.4717 0.11597 3.7046 0.22055l3.38e-4 2.0232 1.178 1.3391e-4 1.21e-4 -1.9149c2.3946 0.24295 4.7775 0.60283 7.1372 1.0779 3.9021 0.79564 7.7336 1.9252 11.453 3.3505 2.0674 0.78279 4.0308 1.8441 6.1974 2.3473l11.522 3.4073z" stop-color="#000000" style="-inkscape-stroke:none;display:inline;fill:#008080;font-variation-settings:normal"/><path d="m-6.4742 65.124-1.6314-2.6097 0.74474 4.1455c0.79746 10.716 2.0737 21.075 1.9097 32.51-6e-3 0.41426-3.8812-2.6639-3.891-2.2467-0.00898 0.39822 3.8468 4.2913 3.8338 4.6922 0.2048 1.6539 0.49664 3.2576 0.85911 4.8284 0.039591 0.17097-1.9354 2.0864-1.8943 2.2567 0.037476 0.15528 2.0909-1.435 2.1298-1.2804 3.0102 11.99 9.9891 22.246 13.29 38.641 0.8266-6.9341-4.4144-23.71-6.6159-33.201l18.726 19.093-5.3471-9.6573c-1.1092-1.8175-2.0421-3.7558-3.4739-5.3523-2.7177-3.3936-5.0932-7.0579-7.1468-10.888-1.2663-2.3647-2.3921-4.8032-3.3854-7.2951l1.8607-0.49903-0.30491-1.1379-1.9878 0.53303c-0.34165-0.89863-0.66727-1.8036-0.97421-2.7147-1.262-3.7771-2.1996-7.6596-2.8246-11.593-0.35573-2.1819-0.41806-4.4131-1.0656-6.5411z" stop-color="#000000" style="-inkscape-stroke:none;display:inline;fill:#008080;font-variation-settings:normal"/><path d="m165.7 86.387c-6.4184 2.7512-18.326 15.678-25.445 22.33l7.172-25.764-5.6904 9.4595c-1.0194 1.8693-2.2317 3.6468-2.8984 5.685-1.5594 3.9976-3.5154 7.837-5.7679 11.488l-1.7175-1.1309-0.648 0.98399 1.7365 1.1432c-1.998 3.1172-4.2398 6.0773-6.6881 8.8558-2.6401 2.9815-5.5338 5.7348-8.6275 8.2427-1.7116 1.399-3.6127 2.569-5.1318 4.1939l-8.7109 8.2742-1.4444 2.7177 3.2178-2.7176c8.8816-6.0486 17.214-12.333 27.199-17.909 0.36178-0.20195-0.36596 4.6931 1.7e-4 4.4931 0.34937-0.19133 1.7929-5.4772 2.1466-5.6664 1.3298-1.0043 2.5725-2.059 3.7516-3.1583 0.12827-0.11976 2.7748 0.63303 2.9016 0.51235 0.11574-0.11011-2.2882-1.0938-2.1736-1.2047 8.8785-8.602 14.27-19.773 26.82-30.829z" stop-color="#000000" style="-inkscape-stroke:none;display:inline;fill:#008080;font-variation-settings:normal"/><path d="m134.21 22.502-3.4579-2.4049c-8.1413-7.0134-16.368-13.435-24.337-21.637-0.28868-0.29714 4.6278-0.86093 4.3396-1.1628-0.27524-0.28793-5.7546-0.3142-6.0288-0.60691-1.3143-1.0247-2.6548-1.9521-4.0219-2.8064-0.14889-0.09289-0.10643-2.8442-0.25583-2.9354-0.1363-0.083192-0.46416 2.4931-0.60101 2.4112-10.607-6.3499-22.793-8.6671-36.72-17.926 4.3187 5.4876 19.887 13.645 28.155 18.799l-26.742-0.2596 10.61 3.0484c2.0694 0.50085 4.0999 1.2113 6.2412 1.3279 4.3213 0.47794 8.5923 1.3894 12.753 2.6458 1.1843 0.35826 2.3575 0.75175 3.5213 1.1719l-0.52331 1.9543 1.1378 0.30501 0.49573-1.8496c2.2501 0.85444 4.4587 1.8188 6.615 2.8884 3.5632 1.7785 6.9718 3.8612 10.195 6.2005 1.7943 1.2912 3.4161 2.8245 5.3787 3.8713l10.247 6.2732z" stop-color="#000000" style="-inkscape-stroke:none;display:inline;fill:#008080;font-variation-settings:normal"/><path d="m-2.3841 45.333-0.9004-2.943-0.35358 4.197c-2.0032 10.557-3.4514 20.893-6.5695 31.896-0.11302 0.39859-3.0595-3.5776-3.177-3.1772-0.11174 0.38232 2.6051 5.1407 2.4888 5.5246-0.23023 1.6505-0.36342 3.2752-0.41985 4.8863-6e-3 0.17539-2.4094 1.5144-2.4138 1.6895-4e-3 0.15969 2.3911-0.84492 2.3886-0.6855-0.19566 12.361 3.8911 24.073 2.8357 40.764 2.5931-6.4839 1.8727-24.045 2.2026-33.782l13.146 23.289-2.6654-10.712c-0.60096-2.0427-1.0004-4.1564-1.9702-6.0691-1.7468-3.9814-3.093-8.1356-4.0852-12.367-0.61111-2.6118-1.0674-5.2586-1.3819-7.9227l1.9264-4.46e-4 -8.1e-6 -1.178-2.058 3.92e-4c-0.097428-0.95643-0.17773-1.9148-0.2384-2.8743-0.24139-3.9751-0.14219-7.9679 0.27205-11.929 0.22109-2.1996 0.73838-4.3709 0.66364-6.594z" stop-color="#000000" style="-inkscape-stroke:none;display:inline;fill:#008080;font-variation-settings:normal"/><path d="m158.42 110.43c-6.9118 0.99629-21.76 10.4-30.357 14.983l13.596-23.03-7.9448 7.6644c-1.4685 1.5417-3.0995 2.945-4.271 4.7412-2.541 3.4578-5.424 6.6602-8.5446 9.6034l-1.3662-1.5369-0.88059 0.78275 1.3814 1.5537c-2.7367 2.4939-5.6682 4.7729-8.7523 6.823-3.3218 2.1966-6.8295 4.1072-10.467 5.7288-2.0154 0.90832-4.1545 1.5464-6.0424 2.7228l-10.556 5.7377-2.0985 2.2513 3.8115-1.7922c10.144-3.5438 19.819-7.4573 30.907-10.259 0.40172-0.10144-1.5682 4.4385-1.1627 4.34 0.38698-0.0944 3.1494-4.8265 3.54-4.9177 1.5444-0.62587 3.0177-1.323 4.4412-2.0797 0.1549-0.0825 2.5164 1.3296 2.6702 1.2459 0.1403-0.0764-1.9271-1.6487-1.7877-1.7262 10.802-6.011 18.902-15.406 33.885-22.837z" stop-color="#000000" style="-inkscape-stroke:none;display:inline;fill:#008080;font-variation-settings:normal"/><path d="m144.54 40.574-2.7177-3.2179c-6.0487-8.8816-12.333-17.214-17.908-27.199-0.20194-0.36173 4.6929 0.36616 4.4927-1e-6 -0.19134-0.34935-5.4772-1.7929-5.6663-2.1466-1.0043-1.3299-2.0591-2.5727-3.1585-3.7517-0.11977-0.12826 0.63332-2.7748 0.51263-2.9016-0.11013-0.11563-1.0936 2.288-1.2046 2.1735-8.6021-8.8788-19.773-14.271-30.829-26.819 2.7512 6.4184 15.678 18.327 22.33 25.445l-25.764-7.1722 9.4594 5.6906c1.8693 1.0194 3.6467 2.2312 5.6849 2.898 4.0504 1.5801 7.9399 3.5659 11.634 5.8565 1.0512 0.65257 2.0826 1.3363 3.098 2.0433l-1.0113 1.7523 1.0201 0.58911 0.95756-1.6583c1.9523 1.4077 3.836 2.9108 5.642 4.5021 2.9815 2.6401 5.7349 5.5341 8.2429 8.6279 1.399 1.7116 2.5687 3.6124 4.1935 5.1315l8.2744 8.7116z" stop-color="#000000" style="-inkscape-stroke:none;display:inline;fill:#008080;font-variation-settings:normal"/><path d="m6.689 27.274-0.10801-3.0758-1.4278 3.9625c-4.6674 9.6791-8.7414 19.288-14.601 29.109-0.21233 0.35576-2.0293-4.2476-2.2464-3.8912-0.20688 0.34038 1.1858 5.6398 0.97411 5.9805-0.64958 1.5347-1.1987 3.0695-1.6702 4.6111-0.05119 0.16786-2.7193 0.83924-2.7688 1.0072-0.04519 0.15321 2.5283-0.19727 2.4846-0.04394-3.3882 11.889-2.4721 24.26-7.8114 40.109 4.1829-5.5918 8.0322-22.741 10.871-32.061l6.6709 25.898 0.19792-11.037c-0.0518-2.1286 0.10939-4.2737-0.33228-6.3722-0.65678-4.2978-0.88193-8.6589-0.74517-13.003 0.085704-2.681 0.33001-5.3557 0.71572-8.0104l1.8609 0.49816 0.30489-1.1379-1.988-0.53228c0.15343-0.94906 0.32393-1.8956 0.51366-2.8381 0.79565-3.9021 1.9249-7.7332 3.3502-11.452 0.78285-2.0674 1.8445-4.0309 2.3477-6.1976z" stop-color="#000000" style="-inkscape-stroke:none;display:inline;fill:#008080;font-variation-settings:normal"/><path d="m145.17 131.77c-6.9341-0.82655-23.71 4.4143-33.201 6.6156l19.093-18.726-9.6578 5.347c-1.8175 1.1091-3.7561 2.0424-5.3526 3.4742-3.3493 2.6823-6.9629 5.0294-10.739 7.0647l-0.92192-1.8381-1.0532 0.52816 0.93222 1.8583c-3.2889 1.7006-6.7104 3.1432-10.22 4.3253-3.7771 1.262-7.6598 2.1996-11.593 2.8246-2.1818 0.35575-4.4132 0.4184-6.5412 1.0661l-11.681 2.8102-2.6097 1.6314 4.1455-0.74465c10.716-0.79743 21.074-2.0736 32.509-1.91 0.41429 6e-3 -2.6635 3.8814-2.2464 3.8912 0.39823 9e-3 4.2913-3.8469 4.6922-3.8339 1.6538-0.20481 3.2573-0.4969 4.8281-0.85939 0.17097-0.0396 2.0865 1.9356 2.2567 1.8945 0.15529-0.0375-1.4347-2.0913-1.28-2.1301 11.99-3.0103 22.245-9.9886 38.641-13.289z" stop-color="#000000" style="-inkscape-stroke:none;display:inline;fill:#008080;font-variation-settings:normal"/><path d="m149.83 60.703-1.7922-3.8116c-3.5439-10.144-7.4574-19.819-10.258-30.907-0.10143-0.40167 4.4382 1.5683 4.3396 1.1628-0.0944-0.38697-4.8265-3.1494-4.9177-3.54-0.62586-1.5445-1.3231-3.018-2.0798-4.4413-0.0825-0.15489 1.3299-2.5163 1.2462-2.6701-0.0764-0.1402-1.6485 1.927-1.7261 1.7877-6.011-10.803-15.406-18.902-22.837-33.884 0.99625 6.9118 10.4 21.76 14.983 30.357l-23.03-13.596 7.6642 7.945c1.5418 1.4685 2.945 3.099 4.7411 4.2706 3.5034 2.5746 6.7464 5.4994 9.7218 8.668 0.84648 0.9024 1.6658 1.8298 2.4636 2.7755l-1.4304 1.4308 0.83287 0.83306 1.3541-1.354c1.5214 1.865 2.9519 3.8044 4.2845 5.809 2.1966 3.3218 4.1072 6.8298 5.729 10.467 0.90834 2.0154 1.5462 4.1541 2.7225 6.042l5.7377 10.556z" stop-color="#000000" style="-inkscape-stroke:none;display:inline;fill:#008080;font-variation-settings:normal"/><path d="m20.127 12.179 0.69175-2.9989-2.4047 3.4579c-7.0135 8.1413-13.436 16.368-21.637 24.338-0.29717 0.28869-0.86079-4.6281-1.1627-4.34-0.28793 0.27523-0.31429 5.7545-0.60695 6.0288-1.0247 1.3143-1.9523 2.6547-2.8067 4.0217-0.092892 0.14889-2.8439 0.10683-2.9351 0.25626-0.0833 0.1363 2.4932 0.46383 2.4113 0.60062-6.3499 10.607-8.6668 22.794-17.926 36.721 5.4877-4.3187 13.644-19.887 18.799-28.155l-0.2593 26.742 3.0478-10.61c0.50089-2.0695 1.2118-4.0998 1.3283-6.2411 0.47795-4.3213 1.3892-8.5921 2.6456-12.753 0.77668-2.5675 1.7049-5.0878 2.7646-7.5522l1.6686 0.96283 0.58901-1.0202-1.7825-1.0287c0.39384-0.87701 0.80351-1.7472 1.2307-2.6084 1.7785-3.5632 3.8608-6.9715 6.2-10.195 1.2913-1.7943 2.8249-3.4162 3.8718-5.3788z" stop-color="#000000" style="-inkscape-stroke:none;display:inline;fill:#008080;font-variation-settings:normal"/><path d="m126.84 148.96c-6.4839-2.5931-24.045-1.8727-33.782-2.2028l23.289-13.146-10.713 2.6652c-2.0426 0.60093-4.1567 1.0006-6.0694 1.9705-3.9294 1.724-8.0274 3.0559-12.202 4.0445l-0.41477-2.0141-1.154 0.23758 0.4195 2.0362c-3.617 0.79143-7.2953 1.2993-10.991 1.5328-3.975 0.24141-7.9681 0.14215-11.929-0.27213-2.1995-0.22107-4.3711-0.73808-6.5942-0.66323l-12.01-0.30882-2.943 0.90039 4.197 0.35366c10.557 2.0032 20.893 3.4514 31.896 6.569 0.39862 0.11302-3.5773 3.0598-3.177 3.1772 0.38233 0.11176 5.1407-2.6052 5.5246-2.4888 1.6505 0.2302 3.2749 0.36308 4.886 0.41949 0.17539 6e-3 1.5144 2.4097 1.6895 2.4141 0.1597 4e-3 -0.84455-2.3914-0.68508-2.3888 12.361 0.19551 24.072-3.8908 40.764-2.8352z" stop-color="#000000" style="-inkscape-stroke:none;display:inline;fill:#008080;font-variation-settings:normal"/><path d="m149.74 81.518-0.74465-4.1456c-0.79753-10.716-2.0737-21.074-1.9093-32.509 6e-3 -0.41424 3.8811 2.6636 3.8908 2.2464 9e-3 -0.39822-3.847-4.2913-3.8339-4.6922-0.20479-1.6539-0.49688-3.2576-0.85948-4.8283-0.0396-0.17096 1.9359-2.0864 1.8948-2.2565-0.0375-0.15519-2.0911 1.4347-2.13 1.28-3.0102-11.99-9.9884-22.246-13.289-38.64-0.82659 6.9341 4.414 23.711 6.6159 33.201l-18.726-19.093 5.3468 9.6579c1.1092 1.8175 2.0425 3.7556 3.4743 5.3522 2.7177 3.3936 5.0932 7.0581 7.1471 10.889 0.58408 1.0907 1.1354 2.1986 1.6613 3.3185l-1.752 1.0119 0.58888 1.0202 1.6584-0.95735c0.9869 2.1953 1.8667 4.4388 2.6351 6.7199 1.262 3.7771 2.1995 7.6601 2.8246 11.593 0.35577 2.1818 0.41836 4.4128 1.0659 6.5408l2.81 11.682z" stop-color="#000000" style="-inkscape-stroke:none;display:inline;fill:#008080;font-variation-settings:normal"/><path d="m37.014 1.0763 1.4444-2.7177-3.2178 2.7177c-8.8816 6.0486-17.214 12.333-27.199 17.909-0.36176 0.20194 0.36638-4.6932 1.634e-4 -4.4931-0.34936 0.19133-1.793 5.4771-2.1466 5.6663-1.3299 1.0043-2.5729 2.0589-3.752 3.1582-0.12826 0.11978-2.7746-0.63285-2.9014-0.51214-0.11574 0.11009 2.2882 1.0933 2.1737 1.2042-8.8788 8.6021-14.271 19.774-26.819 30.83 6.4184-2.7512 18.327-15.678 25.445-22.33l-7.1718 25.764 5.6899-9.4594c1.0194-1.8693 2.2316-3.6464 2.8983-5.6846 1.5801-4.0504 3.5657-7.9398 5.8562-11.634 1.4147-2.279 2.9636-4.4732 4.625-6.5794l1.3625 1.3619 0.833-0.83301-1.4555-1.455c0.60741-0.74519 1.2283-1.4797 1.8639-2.201 2.6401-2.9815 5.5336-5.7347 8.6274-8.2426 1.7117-1.399 3.6128-2.5686 5.132-4.1934z" stop-color="#000000" style="-inkscape-stroke:none;display:inline;fill:#008080;font-variation-settings:normal"/><path d="m104.69 160.82c-5.5918-4.1829-22.741-8.0321-32.061-10.871l25.898-6.6707-11.037-0.19824c-2.1285 0.0518-4.2741-0.10929-6.3726 0.33244-4.2417 0.64829-8.5448 0.87413-12.833 0.74872l0.12065-2.0528-1.1762-0.0692-0.12182 2.0754c-3.6986-0.17168-7.383-0.63312-11.013-1.3642-3.9021-0.79563-7.7334-1.925-11.452-3.3503-2.0674-0.78282-4.0311-1.8443-6.1979-2.3473l-11.521-3.4068-3.0758 0.108 3.9624 1.4279c9.679 4.6674 19.287 8.7412 29.109 14.6 0.35578 0.21234-4.2474 2.0296-3.891 2.2467 0.34038 0.20691 5.6398-1.1859 5.9805-0.97416 1.5346 0.64952 3.0694 1.1983 4.611 1.6698 0.16786 0.0512 0.83916 2.7196 1.0071 2.7691 0.15323 0.0452-0.19684-2.5285-0.04347-2.4847 11.889 3.388 24.259 2.4721 40.109 7.8119z" stop-color="#000000" style="-inkscape-stroke:none;display:inline;fill:#008080;font-variation-settings:normal"/><path d="m-2.7926 101.6-0.35369-4.1971c-2.0032-10.557-3.4514-20.893-6.5697-31.895-0.11301-0.39857-3.0595 3.5773-3.1768 3.1768-0.11176-0.38232 2.6052-5.1407 2.4888-5.5246-0.23024-1.6505-0.36317-3.2752-0.41947-4.8862-6e-3 -0.17539-2.4099-1.5143-2.4142-1.6893-4e-3 -0.15961 2.3912 0.84457 2.3887 0.68512-0.19565-12.361 3.8905-24.073 2.8355-40.763 2.5931 6.4839 1.8731 24.045 2.2026 33.782l13.146-23.289-2.665 10.713c-0.60096 2.0426-1.0009 4.1563-1.9706 6.069-1.7468 3.9814-3.0929 8.1358-4.0853 12.368-0.28188 1.2047-0.52772 2.4175-0.74579 3.6354l1.9542 0.52396-0.30476 1.1379-1.8497-0.4955c-0.3851 2.3759-0.65422 4.7707-0.80604 7.173-0.24141 3.9751-0.14199 7.9684 0.27224 11.929 0.22104 2.1995 0.73801 4.3707 0.66326 6.5938l0.30915 12.011z" stop-color="#000000" style="-inkscape-stroke:none;display:inline;fill:#800000;font-variation-settings:normal"/><path d="m85.275-5.2774-2.0985-2.2513 3.8115 1.7923c10.145 3.5438 19.82 7.4576 30.908 10.259 0.4017 0.10142-1.5686-4.4384-1.163-4.3399 0.38697 0.094393 3.1494 4.8264 3.54 4.9176 1.5445 0.62588 3.0181 1.3229 4.4416 2.0795 0.15489 0.0825 2.5163-1.3294 2.67-1.2456 0.14029 0.076385-1.9273 1.6483-1.788 1.7258 10.803 6.011 18.902 15.406 33.885 22.838-6.9118-0.99625-21.76-10.401-30.358-14.984l13.596 23.03-7.9443-7.6644c-1.4685-1.5418-3.0993-2.9446-4.2709-4.7408-2.5746-3.5034-5.4992-6.7464-8.6676-9.7214-1.9564-1.8352-4.0204-3.5537-6.1703-5.1581l-0.9636 1.6681-1.0202-0.58903 1.0294-1.7821c-0.77958-0.56259-1.5694-1.1113-2.37-1.6436-3.3218-2.1966-6.8293-4.1071-10.467-5.7288-2.0154-0.90832-4.1545-1.546-6.0424-2.7223z" stop-color="#000000" style="-inkscape-stroke:none;display:inline;fill:#800000;font-variation-settings:normal"/><path d="m61.251 166.53c4.3187-5.4876 19.887-13.644 28.155-18.799l-26.742 0.25948 10.61-3.0482c2.0694-0.50087 4.1002-1.2118 6.2415-1.3282 4.265-0.47164 8.4798-1.3672 12.589-2.5981l-0.64784-1.9516 1.1182-0.37125 0.65483 1.9732c3.5281-1.1231 6.9675-2.5224 10.285-4.1682 3.5632-1.7784 6.9716-3.8609 10.195-6.2002 1.7943-1.2912 3.4165-2.8248 5.3792-3.8715l10.247-6.2726 2.9989-0.69175-3.4579 2.4048c-8.1412 7.0135-16.368 13.435-24.338 21.637-0.2887 0.29718 4.6279 0.86117 4.3399 1.163-0.27523 0.28795-5.7546 0.31422-6.0288 0.6069-1.3142 1.0246-2.6546 1.9519-4.0217 2.8063-0.14889 0.0929-0.1067 2.8441-0.2561 2.9354-0.13631 0.0833-0.4643-2.4933-0.60111-2.4113-10.607 6.3496-22.793 8.6666-36.72 17.927z" stop-color="#000000" style="-inkscape-stroke:none;display:inline;fill:#800000;font-variation-settings:normal"/><path d="m-2.7926 101.6-0.35369-4.1971c-2.0032-10.557-3.4514-20.893-6.5697-31.895-0.11301-0.39857-3.0595 3.5773-3.1768 3.1768-0.11176-0.38232 2.6052-5.1407 2.4888-5.5246-0.23024-1.6505-0.36317-3.2752-0.41947-4.8862-6e-3 -0.17539-2.4099-1.5143-2.4142-1.6893-4e-3 -0.15961 2.3912 0.84457 2.3887 0.68512-0.19565-12.361 3.8905-24.073 2.8355-40.763 2.5931 6.4839 1.8731 24.045 2.2026 33.782l13.146-23.289-2.665 10.713c-0.60096 2.0426-1.0009 4.1563-1.9706 6.069-1.7468 3.9814-3.0929 8.1358-4.0853 12.368-0.28188 1.2047-0.52772 2.4175-0.74579 3.6354l1.9542 0.52396-0.30476 1.1379-1.8497-0.4955c-0.3851 2.3759-0.65422 4.7707-0.80604 7.173-0.24141 3.9751-0.14199 7.9684 0.27224 11.929 0.22104 2.1995 0.73801 4.3707 0.66326 6.5938l0.30915 12.011z" stop-color="#000000" style="-inkscape-stroke:none;display:inline;fill:#800000;font-variation-settings:normal"/><path d="m85.275-5.2774-2.0985-2.2513 3.8115 1.7923c10.145 3.5438 19.82 7.4576 30.908 10.259 0.4017 0.10142-1.5686-4.4384-1.163-4.3399 0.38697 0.094393 3.1494 4.8264 3.54 4.9176 1.5445 0.62588 3.0181 1.3229 4.4416 2.0795 0.15489 0.0825 2.5163-1.3294 2.67-1.2456 0.14029 0.076385-1.9273 1.6483-1.788 1.7258 10.803 6.011 18.902 15.406 33.885 22.838-6.9118-0.99625-21.76-10.401-30.358-14.984l13.596 23.03-7.9443-7.6644c-1.4685-1.5418-3.0993-2.9446-4.2709-4.7408-2.5746-3.5034-5.4992-6.7464-8.6676-9.7214-1.9564-1.8352-4.0204-3.5537-6.1703-5.1581l-0.9636 1.6681-1.0202-0.58903 1.0294-1.7821c-0.77958-0.56259-1.5694-1.1113-2.37-1.6436-3.3218-2.1966-6.8293-4.1071-10.467-5.7288-2.0154-0.90832-4.1545-1.546-6.0424-2.7223z" stop-color="#000000" style="-inkscape-stroke:none;display:inline;fill:#800000;font-variation-settings:normal"/><path d="m61.251 166.53c4.3187-5.4876 19.887-13.644 28.155-18.799l-26.742 0.25948 10.61-3.0482c2.0694-0.50087 4.1002-1.2118 6.2415-1.3282 4.265-0.47164 8.4798-1.3672 12.589-2.5981l-0.64784-1.9516 1.1182-0.37125 0.65483 1.9732c3.5281-1.1231 6.9675-2.5224 10.285-4.1682 3.5632-1.7784 6.9716-3.8609 10.195-6.2002 1.7943-1.2912 3.4165-2.8248 5.3792-3.8715l10.247-6.2726 2.9989-0.69175-3.4579 2.4048c-8.1412 7.0135-16.368 13.435-24.338 21.637-0.2887 0.29718 4.6279 0.86117 4.3399 1.163-0.27523 0.28795-5.7546 0.31422-6.0288 0.6069-1.3142 1.0246-2.6546 1.9519-4.0217 2.8063-0.14889 0.0929-0.1067 2.8441-0.2561 2.9354-0.13631 0.0833-0.4643-2.4933-0.60111-2.4113-10.607 6.3496-22.793 8.6666-36.72 17.927z" stop-color="#000000" style="-inkscape-stroke:none;display:inline;fill:#800000;font-variation-settings:normal"/><path d="m-2.7926 101.6-0.35369-4.1971c-2.0032-10.557-3.4514-20.893-6.5697-31.895-0.11301-0.39857-3.0595 3.5773-3.1768 3.1768-0.11176-0.38232 2.6052-5.1407 2.4888-5.5246-0.23024-1.6505-0.36317-3.2752-0.41947-4.8862-6e-3 -0.17539-2.4099-1.5143-2.4142-1.6893-4e-3 -0.15961 2.3912 0.84457 2.3887 0.68512-0.19565-12.361 3.8905-24.073 2.8355-40.763 2.5931 6.4839 1.8731 24.045 2.2026 33.782l13.146-23.289-2.665 10.713c-0.60096 2.0426-1.0009 4.1563-1.9706 6.069-1.7468 3.9814-3.0929 8.1358-4.0853 12.368-0.28188 1.2047-0.52772 2.4175-0.74579 3.6354l1.9542 0.52396-0.30476 1.1379-1.8497-0.4955c-0.3851 2.3759-0.65422 4.7707-0.80604 7.173-0.24141 3.9751-0.14199 7.9684 0.27224 11.929 0.22104 2.1995 0.73801 4.3707 0.66326 6.5938l0.30915 12.011z" stop-color="#000000" style="-inkscape-stroke:none;display:inline;fill:#800000;font-variation-settings:normal"/><path d="m85.275-5.2774-2.0985-2.2513 3.8115 1.7923c10.145 3.5438 19.82 7.4576 30.908 10.259 0.4017 0.10142-1.5686-4.4384-1.163-4.3399 0.38697 0.09439 3.1494 4.8264 3.54 4.9176 1.5445 0.62588 3.0181 1.3229 4.4416 2.0795 0.15489 0.082501 2.5163-1.3294 2.67-1.2456 0.14029 0.076385-1.9273 1.6483-1.788 1.7258 10.803 6.011 18.902 15.406 33.885 22.838-6.9118-0.99625-21.76-10.401-30.358-14.984l13.596 23.03-7.9443-7.6644c-1.4685-1.5418-3.0993-2.9446-4.2709-4.7408-2.5746-3.5034-5.4992-6.7464-8.6676-9.7214-1.9564-1.8352-4.0204-3.5537-6.1703-5.1581l-0.9636 1.6681-1.0202-0.58903 1.0294-1.7821c-0.77958-0.56259-1.5694-1.1113-2.37-1.6436-3.3218-2.1966-6.8293-4.1071-10.467-5.7288-2.0154-0.90832-4.1545-1.546-6.0424-2.7223z" stop-color="#000000" style="-inkscape-stroke:none;display:inline;fill:#800000;font-variation-settings:normal"/><path d="m61.251 166.53c4.3187-5.4876 19.887-13.644 28.155-18.799l-26.742 0.25948 10.61-3.0482c2.0694-0.50088 4.1002-1.2118 6.2415-1.3282 4.265-0.47164 8.4798-1.3672 12.589-2.5981l-0.64784-1.9516 1.1182-0.37125 0.65483 1.9732c3.5281-1.1231 6.9675-2.5224 10.285-4.1682 3.5632-1.7784 6.9716-3.8609 10.195-6.2002 1.7943-1.2912 3.4165-2.8248 5.3792-3.8715l10.247-6.2726 2.9989-0.69176-3.4579 2.4048c-8.1412 7.0135-16.368 13.435-24.338 21.637-0.2887 0.29718 4.6279 0.86117 4.3399 1.163-0.27523 0.28795-5.7546 0.31422-6.0288 0.6069-1.3142 1.0246-2.6546 1.9519-4.0217 2.8063-0.14889 0.0929-0.1067 2.8441-0.25609 2.9354-0.1363 0.0833-0.46429-2.4933-0.60111-2.4113-10.607 6.3496-22.793 8.6666-36.72 17.927z" stop-color="#000000" style="-inkscape-stroke:none;display:inline;fill:#800000;font-variation-settings:normal"/><path d="m-8.2684 81.518 0.74465-4.1456c0.79752-10.716 2.0737-21.074 1.9093-32.509-6e-3 -0.41424-3.8811 2.6636-3.8908 2.2464-9e-3 -0.39822 3.847-4.2913 3.8339-4.6922 0.20479-1.6539 0.49688-3.2576 0.85947-4.8283 0.039598-0.17096-1.9359-2.0864-1.8947-2.2565 0.037447-0.15521 2.0911 1.4347 2.13 1.28 3.0102-11.99 9.9884-22.246 13.289-38.64 0.82659 6.9341-4.414 23.711-6.6159 33.201l18.726-19.093-5.3468 9.6579c-1.1092 1.8175-2.0425 3.7556-3.4743 5.3522-2.7177 3.3936-5.0932 7.0581-7.1471 10.889-0.58409 1.0907-1.1354 2.1986-1.6613 3.3185l1.752 1.0119-0.58888 1.0202-1.6584-0.95735c-0.9869 2.1953-1.8667 4.4388-2.6351 6.7199-1.262 3.7771-2.1995 7.6601-2.8246 11.593-0.35577 2.1818-0.41836 4.4128-1.0659 6.5408l-2.81 11.682z" stop-color="#000000" style="-inkscape-stroke:none;display:inline;fill:#800000;font-variation-settings:normal"/><path d="m104.46 1.0763-1.4444-2.7177 3.2178 2.7177c8.8816 6.0486 17.214 12.333 27.199 17.909 0.36176 0.20193-0.36638-4.6932-1.7e-4 -4.4931 0.34936 0.19133 1.793 5.4771 2.1466 5.6663 1.3299 1.0043 2.5729 2.0589 3.752 3.1582 0.12826 0.11978 2.7746-0.63285 2.9014-0.51214 0.11574 0.11009-2.2882 1.0933-2.1737 1.2042 8.8788 8.6021 14.271 19.774 26.819 30.83-6.4184-2.7512-18.327-15.678-25.445-22.33l7.1718 25.764-5.6899-9.4594c-1.0194-1.8693-2.2316-3.6464-2.8983-5.6846-1.5801-4.0504-3.5657-7.9398-5.8562-11.634-1.4147-2.279-2.9636-4.4732-4.625-6.5794l-1.3625 1.3619-0.83299-0.83301 1.4555-1.455c-0.60741-0.74519-1.2283-1.4797-1.8639-2.201-2.6401-2.9815-5.5336-5.7347-8.6274-8.2426-1.7117-1.399-3.6128-2.5686-5.132-4.1934z" stop-color="#000000" style="-inkscape-stroke:none;display:inline;fill:#800000;font-variation-settings:normal"/><path d="m36.787 160.82c5.5918-4.1829 22.741-8.0321 32.061-10.871l-25.898-6.6707 11.037-0.19825c2.1285 0.0518 4.2741-0.10928 6.3726 0.33245 4.2417 0.64829 8.5448 0.87413 12.833 0.74872l-0.12065-2.0528 1.1762-0.0692 0.12182 2.0754c3.6986-0.17168 7.383-0.63312 11.013-1.3642 3.9021-0.79563 7.7334-1.925 11.452-3.3503 2.0674-0.78282 4.0312-1.8443 6.1979-2.3473l11.521-3.4068 3.0758 0.10799-3.9624 1.4279c-9.679 4.6674-19.287 8.7412-29.109 14.6-0.35578 0.21234 4.2474 2.0296 3.891 2.2467-0.34038 0.2069-5.6398-1.1859-5.9805-0.97416-1.5346 0.64952-3.0694 1.1983-4.611 1.6698-0.16786 0.0512-0.83916 2.7196-1.0071 2.7691-0.15322 0.0452 0.19684-2.5285 0.04347-2.4847-11.889 3.388-24.259 2.4721-40.109 7.8119z" stop-color="#000000" style="-inkscape-stroke:none;display:inline;fill:#800000;font-variation-settings:normal"/><path d="m-8.3601 60.703 1.7922-3.8116c3.5439-10.144 7.4574-19.819 10.258-30.907 0.10142-0.40168-4.4382 1.5683-4.3396 1.1628 0.094373-0.38698 4.8265-3.1494 4.9177-3.54 0.62587-1.5445 1.3231-3.018 2.0798-4.4413 0.082497-0.15489-1.3299-2.5163-1.2461-2.67 0.076342-0.14023 1.6485 1.927 1.7261 1.7877 6.011-10.803 15.406-18.902 22.837-33.884-0.99625 6.9118-10.4 21.76-14.983 30.357l23.03-13.596-7.6643 7.945c-1.5418 1.4685-2.945 3.099-4.7411 4.2706-3.5034 2.5746-6.7464 5.4994-9.7218 8.668-0.84649 0.9024-1.6658 1.8298-2.4636 2.7755l1.4304 1.4309-0.83287 0.83306-1.3541-1.354c-1.5214 1.865-2.9519 3.8044-4.2845 5.8089-2.1966 3.3218-4.1072 6.8298-5.729 10.467-0.90834 2.0154-1.5462 4.1541-2.7225 6.042l-5.7377 10.556z" stop-color="#000000" style="-inkscape-stroke:none;display:inline;fill:#800000;font-variation-settings:normal"/><path d="m121.35 12.179-0.69175-2.9989 2.4047 3.4579c7.0135 8.1413 13.436 16.368 21.637 24.338 0.29717 0.28868 0.86079-4.6281 1.1627-4.34 0.28794 0.27523 0.3143 5.7545 0.60696 6.0288 1.0246 1.3143 1.9523 2.6547 2.8067 4.0217 0.0929 0.14889 2.8438 0.10683 2.9351 0.25626 0.0833 0.1363-2.4932 0.46382-2.4113 0.60062 6.3499 10.607 8.6668 22.794 17.926 36.721-5.4877-4.3187-13.644-19.887-18.799-28.155l0.2593 26.742-3.0478-10.61c-0.50089-2.0695-1.2118-4.0998-1.3283-6.2411-0.47795-4.3213-1.3892-8.5921-2.6456-12.753-0.77668-2.5675-1.7049-5.0878-2.7646-7.5522l-1.6686 0.96283-0.58901-1.0202 1.7825-1.0287c-0.39384-0.87701-0.80351-1.7472-1.2307-2.6084-1.7785-3.5632-3.8608-6.9715-6.2-10.195-1.2913-1.7943-2.8249-3.4162-3.8718-5.3788z" stop-color="#000000" style="-inkscape-stroke:none;display:inline;fill:#800000;font-variation-settings:normal"/><path d="m14.636 148.96c6.4839-2.5931 24.045-1.8727 33.782-2.2028l-23.289-13.146 10.713 2.6652c2.0426 0.60095 4.1567 1.0007 6.0694 1.9705 3.9294 1.724 8.0274 3.0559 12.202 4.0445l0.41477-2.0141 1.154 0.23757-0.41949 2.0362c3.617 0.79143 7.2953 1.2993 10.991 1.5328 3.975 0.24141 7.9681 0.14214 11.929-0.27213 2.1995-0.22107 4.3711-0.73809 6.5942-0.66323l12.01-0.30883 2.943 0.90038-4.197 0.35368c-10.557 2.0032-20.893 3.4514-31.896 6.569-0.39861 0.11302 3.5773 3.0598 3.177 3.1772-0.38233 0.11175-5.1407-2.6052-5.5246-2.4888-1.6505 0.23019-3.2749 0.36307-4.886 0.41947-0.1754 6e-3 -1.5144 2.4097-1.6895 2.4141-0.1597 4e-3 0.84456-2.3914 0.68509-2.3888-12.361 0.19551-24.072-3.8908-40.764-2.8352z" stop-color="#000000" style="-inkscape-stroke:none;display:inline;fill:#800000;font-variation-settings:normal"/><path d="m-3.0615 40.574 2.7177-3.2179c6.0487-8.8816 12.333-17.214 17.908-27.199 0.20192-0.36174-4.6929 0.36616-4.4927 0 0.19132-0.34937 5.4772-1.7929 5.6663-2.1466 1.0043-1.3299 2.0591-2.5727 3.1585-3.7517 0.11978-0.12826-0.63332-2.7748-0.51263-2.9016 0.11004-0.11569 1.0936 2.288 1.2046 2.1735 8.6021-8.8788 19.773-14.271 30.829-26.819-2.7512 6.4184-15.678 18.327-22.33 25.445l25.764-7.1722-9.4594 5.6906c-1.8693 1.0194-3.6467 2.2312-5.6849 2.898-4.0504 1.5801-7.9399 3.5659-11.634 5.8565-1.0512 0.65256-2.0826 1.3363-3.098 2.0433l1.0113 1.7523-1.0201 0.58911-0.95756-1.6583c-1.9523 1.4077-3.836 2.9108-5.642 4.5021-2.9815 2.6401-5.7349 5.5341-8.2429 8.6279-1.399 1.7116-2.5687 3.6124-4.1935 5.1315l-8.2744 8.7116z" stop-color="#000000" style="-inkscape-stroke:none;display:inline;fill:#800000;font-variation-settings:normal"/><path d="m134.78 27.274 0.108-3.0758 1.4278 3.9625c4.6674 9.6791 8.7414 19.288 14.601 29.109 0.21233 0.35576 2.0293-4.2476 2.2464-3.8912 0.2069 0.34038-1.1858 5.6398-0.97409 5.9805 0.64957 1.5347 1.1987 3.0695 1.6702 4.6111 0.0512 0.16786 2.7193 0.83923 2.7688 1.0072 0.0452 0.15321-2.5283-0.19727-2.4846-0.04394 3.3882 11.889 2.4721 24.26 7.8114 40.109-4.1829-5.5918-8.0322-22.741-10.871-32.061l-6.6709 25.898-0.19792-11.037c0.0518-2.1286-0.10939-4.2737 0.33228-6.3722 0.65678-4.2978 0.88192-8.6589 0.74517-13.003-0.0857-2.681-0.33-5.3557-0.71572-8.0104l-1.8609 0.49816-0.30489-1.1379 1.988-0.53228c-0.15343-0.94906-0.32393-1.8956-0.51366-2.8381-0.79566-3.9021-1.9249-7.7332-3.3502-11.452-0.78285-2.0674-1.8445-4.0309-2.3477-6.1976z" stop-color="#000000" style="-inkscape-stroke:none;display:inline;fill:#800000;font-variation-settings:normal"/><path d="m-3.6914 131.77c6.9341-0.82656 23.71 4.4143 33.201 6.6156l-19.093-18.726 9.6578 5.347c1.8175 1.1091 3.7561 2.0424 5.3526 3.4742 3.3493 2.6823 6.9629 5.0294 10.739 7.0647l0.92192-1.8381 1.0532 0.52815-0.93222 1.8583c3.2889 1.7006 6.7104 3.1432 10.22 4.3253 3.7771 1.262 7.6598 2.1996 11.593 2.8246 2.1818 0.35575 4.4132 0.41839 6.5412 1.0661l11.681 2.8102 2.6097 1.6314-4.1455-0.74463c-10.716-0.79743-21.074-2.0736-32.509-1.91-0.41428 6e-3 2.6635 3.8814 2.2464 3.8912-0.39823 9e-3 -4.2913-3.8469-4.6922-3.8339-1.6538-0.20483-3.2573-0.49692-4.8281-0.85942-0.17097-0.0396-2.0865 1.9356-2.2567 1.8945-0.15529-0.0375 1.4347-2.0913 1.28-2.1301-11.99-3.0103-22.245-9.9886-38.641-13.289z" stop-color="#000000" style="-inkscape-stroke:none;display:inline;fill:#800000;font-variation-settings:normal"/><path d="m-3.0615 40.574 2.7177-3.2179c6.0487-8.8816 12.333-17.214 17.908-27.199 0.20192-0.36174-4.6929 0.36616-4.4927 0 0.19132-0.34937 5.4772-1.7929 5.6663-2.1466 1.0043-1.3299 2.0591-2.5727 3.1585-3.7517 0.11978-0.12826-0.63332-2.7748-0.51263-2.9016 0.11004-0.11569 1.0936 2.288 1.2046 2.1735 8.6021-8.8788 19.773-14.271 30.829-26.819-2.7512 6.4184-15.678 18.327-22.33 25.445l25.764-7.1722-9.4594 5.6906c-1.8693 1.0194-3.6467 2.2312-5.6849 2.898-4.0504 1.5801-7.9399 3.5659-11.634 5.8565-1.0512 0.65256-2.0826 1.3363-3.098 2.0433l1.0113 1.7523-1.0201 0.58911-0.95756-1.6583c-1.9523 1.4077-3.836 2.9108-5.642 4.5021-2.9815 2.6401-5.7349 5.5341-8.2429 8.6279-1.399 1.7116-2.5687 3.6124-4.1935 5.1315l-8.2744 8.7116z" stop-color="#000000" style="-inkscape-stroke:none;display:inline;fill:#800000;font-variation-settings:normal"/><path d="m134.78 27.274 0.108-3.0758 1.4278 3.9625c4.6674 9.6791 8.7414 19.288 14.601 29.109 0.21233 0.35576 2.0293-4.2476 2.2464-3.8912 0.2069 0.34038-1.1858 5.6398-0.97409 5.9805 0.64957 1.5347 1.1987 3.0695 1.6702 4.6111 0.0512 0.16786 2.7193 0.83923 2.7688 1.0072 0.0452 0.15321-2.5283-0.19727-2.4846-0.04394 3.3882 11.889 2.4721 24.26 7.8114 40.109-4.1829-5.5918-8.0322-22.741-10.871-32.061l-6.6709 25.898-0.19792-11.037c0.0518-2.1286-0.10939-4.2737 0.33228-6.3722 0.65678-4.2978 0.88192-8.6589 0.74517-13.003-0.0857-2.681-0.33-5.3557-0.71572-8.0104l-1.8609 0.49816-0.30489-1.1379 1.988-0.53228c-0.15343-0.94906-0.32393-1.8956-0.51366-2.8381-0.79566-3.9021-1.9249-7.7332-3.3502-11.452-0.78285-2.0674-1.8445-4.0309-2.3477-6.1976z" stop-color="#000000" style="-inkscape-stroke:none;display:inline;fill:#800000;font-variation-settings:normal"/><path d="m-3.6914 131.77c6.9341-0.82656 23.71 4.4143 33.201 6.6156l-19.093-18.726 9.6578 5.347c1.8175 1.1091 3.7561 2.0424 5.3526 3.4742 3.3493 2.6823 6.9629 5.0294 10.739 7.0647l0.92192-1.8381 1.0532 0.52815-0.93222 1.8583c3.2889 1.7006 6.7104 3.1432 10.22 4.3253 3.7771 1.262 7.6598 2.1996 11.593 2.8246 2.1818 0.35575 4.4132 0.41839 6.5412 1.0661l11.681 2.8102 2.6097 1.6314-4.1455-0.74463c-10.716-0.79743-21.074-2.0736-32.509-1.91-0.41428 6e-3 2.6635 3.8814 2.2464 3.8912-0.39823 9e-3 -4.2913-3.8469-4.6922-3.8339-1.6538-0.20483-3.2573-0.49692-4.8281-0.85942-0.17097-0.0396-2.0865 1.9356-2.2567 1.8945-0.15529-0.0375 1.4347-2.0913 1.28-2.1301-11.99-3.0103-22.245-9.9886-38.641-13.289z" stop-color="#000000" style="-inkscape-stroke:none;display:inline;fill:#800000;font-variation-settings:normal"/><path d="m7.2664 22.502 3.4579-2.4049c8.1413-7.0135 16.368-13.435 24.337-21.637 0.28867-0.29715-4.6278-0.86093-4.3396-1.1628 0.27522-0.28795 5.7546-0.3142 6.0288-0.60691 1.3143-1.0247 2.6548-1.9521 4.0219-2.8064 0.14889-0.09289 0.10643-2.8442 0.25583-2.9354 0.13623-0.08327 0.46416 2.4931 0.60101 2.4112 10.607-6.3499 22.793-8.6671 36.72-17.926-4.3187 5.4876-19.887 13.645-28.155 18.799l26.742-0.25959-10.61 3.0484c-2.0694 0.50086-4.0999 1.2113-6.2412 1.3279-4.3213 0.47794-8.5923 1.3894-12.753 2.6458-1.1843 0.35826-2.3575 0.75175-3.5213 1.1719l0.52332 1.9543-1.1378 0.30501-0.49573-1.8496c-2.2501 0.85443-4.4587 1.8188-6.615 2.8884-3.5632 1.7785-6.9718 3.8612-10.195 6.2005-1.7943 1.2912-3.4161 2.8245-5.3787 3.8713l-10.247 6.2732z" stop-color="#000000" style="-inkscape-stroke:none;display:inline;fill:#800000;font-variation-settings:normal"/><path d="m143.86 45.333 0.90039-2.943 0.35358 4.197c2.0032 10.557 3.4514 20.893 6.5695 31.896 0.11302 0.39859 3.0595-3.5776 3.177-3.1772 0.11175 0.38233-2.6051 5.1407-2.4888 5.5246 0.23023 1.6505 0.36341 3.2752 0.41985 4.8863 6e-3 0.1754 2.4094 1.5144 2.4138 1.6895 4e-3 0.15969-2.3911-0.84492-2.3886-0.68551 0.19566 12.361-3.8911 24.073-2.8357 40.764-2.5931-6.4839-1.8727-24.045-2.2026-33.782l-13.146 23.289 2.6654-10.712c0.60096-2.0427 1.0004-4.1564 1.9702-6.0691 1.7468-3.9814 3.093-8.1356 4.0852-12.367 0.61111-2.6118 1.0674-5.2586 1.3819-7.9227l-1.9264-4.47e-4 1e-5 -1.178 2.058 3.94e-4c0.0974-0.95643 0.17772-1.9148 0.23839-2.8743 0.24139-3.9751 0.14219-7.9679-0.27205-11.929-0.22109-2.1996-0.73837-4.3709-0.66364-6.5941z" stop-color="#000000" style="-inkscape-stroke:none;display:inline;fill:#800000;font-variation-settings:normal"/><path d="m-16.947 110.43c6.9118 0.99628 21.76 10.4 30.357 14.983l-13.596-23.03 7.9448 7.6644c1.4685 1.5417 3.0995 2.945 4.271 4.7412 2.541 3.4578 5.4239 6.6602 8.5446 9.6034l1.3662-1.5369 0.88059 0.78274-1.3814 1.5537c2.7367 2.4939 5.6682 4.7729 8.7523 6.823 3.3218 2.1966 6.8295 4.1071 10.467 5.7288 2.0154 0.90832 4.1546 1.5464 6.0424 2.7228l10.556 5.7377 2.0986 2.2513-3.8115-1.7922c-10.144-3.5438-19.819-7.4573-30.907-10.259-0.40172-0.10143 1.5682 4.4385 1.1627 4.34-0.38699-0.0944-3.1494-4.8265-3.54-4.9177-1.5444-0.62589-3.0177-1.323-4.4411-2.0797-0.1549-0.0825-2.5164 1.3296-2.6702 1.2459-0.14029-0.0764 1.9271-1.6487 1.7877-1.7262-10.802-6.011-18.902-15.406-33.885-22.837z" stop-color="#000000" style="-inkscape-stroke:none;display:inline;fill:#800000;font-variation-settings:normal"/><path d="m21.92 7.7192 3.9625-1.4279c9.6791-4.6673 19.288-8.7413 29.108-14.601 0.35574-0.21232-4.2473-2.0293-3.8908-2.2464 0.34037-0.2069 5.6398 1.1859 5.9805 0.97414 1.5347-0.64958 3.0696-1.1985 4.6112-1.6698 0.16786-0.05119 0.83893-2.7197 1.0069-2.7692 0.15314-0.04517-0.19692 2.5283-0.04353 2.4846 11.889-3.3882 24.259-2.4726 40.108-7.8114-5.5918 4.1829-22.741 8.0327-32.061 10.871l25.898 6.6707-11.037 0.1985c-2.1286-0.051815-4.2737 0.10893-6.3723-0.3327-4.2978-0.6568-8.6591-0.88178-13.004-0.74512-1.2366 0.039536-2.4717 0.11596-3.7046 0.22055l-3.33e-4 2.0232-1.178 1.2958e-4 -1.2e-4 -1.9149c-2.3946 0.24294-4.7775 0.60282-7.1372 1.0779-3.9021 0.79564-7.7336 1.9252-11.453 3.3505-2.0674 0.78279-4.0308 1.8441-6.1974 2.3473l-11.522 3.4073z" stop-color="#000000" style="-inkscape-stroke:none;display:inline;fill:#800000;font-variation-settings:normal"/><path d="m147.95 65.124 1.6314-2.6097-0.74474 4.1455c-0.79746 10.716-2.0737 21.075-1.9097 32.51 6e-3 0.41426 3.8812-2.6639 3.891-2.2467 9e-3 0.39822-3.8468 4.2913-3.8338 4.6922-0.20481 1.6539-0.49665 3.2576-0.85912 4.8284-0.0396 0.17097 1.9354 2.0864 1.8942 2.2567-0.0375 0.15528-2.0909-1.435-2.1298-1.2804-3.0102 11.99-9.9891 22.246-13.29 38.641-0.82661-6.9341 4.4144-23.71 6.6159-33.201l-18.726 19.093 5.3471-9.6573c1.1092-1.8175 2.0421-3.7558 3.4739-5.3523 2.7177-3.3936 5.0932-7.0579 7.1468-10.888 1.2663-2.3647 2.3921-4.8032 3.3854-7.2951l-1.8607-0.49903 0.30491-1.1379 1.9878 0.53304c0.34162-0.89863 0.66726-1.8036 0.9742-2.7147 1.262-3.7771 2.1996-7.6596 2.8246-11.593 0.35573-2.1818 0.41807-4.4131 1.0656-6.5411z" stop-color="#000000" style="-inkscape-stroke:none;display:inline;fill:#800000;font-variation-settings:normal"/><path d="m-24.226 86.387c6.4184 2.7512 18.326 15.678 25.445 22.33l-7.172-25.764 5.6904 9.4595c1.0194 1.8693 2.2317 3.6468 2.8984 5.685 1.5594 3.9976 3.5154 7.837 5.7679 11.488l1.7175-1.1309 0.648 0.98398-1.7365 1.1432c1.998 3.1172 4.2398 6.0773 6.6881 8.8558 2.6401 2.9815 5.5338 5.7348 8.6275 8.2427 1.7116 1.399 3.6128 2.569 5.1318 4.1939l8.711 8.2742 1.4444 2.7177-3.2178-2.7176c-8.8816-6.0486-17.214-12.333-27.199-17.909-0.36178-0.20195 0.36597 4.6931-1.689e-4 4.4931-0.34937-0.19134-1.7929-5.4772-2.1466-5.6663-1.3298-1.0043-2.5725-2.059-3.7515-3.1583-0.12827-0.11978-2.7748 0.63304-2.9016 0.51236-0.11574-0.11011 2.2882-1.0938 2.1736-1.2047-8.8785-8.602-14.27-19.773-26.82-30.829z" stop-color="#000000" style="-inkscape-stroke:none;display:inline;fill:#800000;font-variation-settings:normal"/><path d="m39.9-2.7676 4.1971-0.35369c10.557-2.0032 20.893-3.4514 31.895-6.5697 0.39857-0.11301-3.5773-3.0595-3.1768-3.1768 0.38232-0.11176 5.1407 2.6052 5.5246 2.4888 1.6505-0.23024 3.2752-0.36317 4.8862-0.41947 0.17539-6e-3 1.5143-2.4099 1.6893-2.4142 0.15961-4e-3 -0.84457 2.3912-0.68511 2.3887 12.361-0.19565 24.073 3.8905 40.763 2.8355-6.4839 2.5931-24.045 1.8731-33.782 2.2026l23.289 13.146-10.713-2.665c-2.0426-0.60096-4.1563-1.0009-6.069-1.9706-3.9814-1.7468-8.1358-3.0929-12.368-4.0853-1.2047-0.28188-2.4175-0.52772-3.6354-0.74579l-0.52396 1.9542-1.1379-0.30476 0.4955-1.8497c-2.3759-0.3851-4.7707-0.65422-7.173-0.80604-3.9751-0.24141-7.9684-0.14199-11.929 0.27224-2.1995 0.22104-4.3707 0.73801-6.5938 0.66326l-12.011 0.30915z" stop-color="#000000" style="-inkscape-stroke:none;display:inline;fill:#800000;font-variation-settings:normal"/><path d="m146.78 85.3 2.2513-2.0986-1.7923 3.8115c-3.5438 10.145-7.4576 19.82-10.259 30.908-0.10142 0.4017 4.4384-1.5686 4.3399-1.163-0.0944 0.38698-4.8264 3.1494-4.9176 3.5401-0.62589 1.5445-1.3229 3.0181-2.0795 4.4416-0.0825 0.15489 1.3294 2.5162 1.2456 2.67-0.0764 0.14028-1.6483-1.9273-1.7258-1.788-6.011 10.803-15.406 18.902-22.838 33.885 0.99624-6.9118 10.401-21.76 14.984-30.358l-23.03 13.596 7.6644-7.9443c1.5418-1.4685 2.9446-3.0993 4.7408-4.2709 3.5034-2.5746 6.7464-5.4992 9.7214-8.6676 1.8352-1.9564 3.5537-4.0204 5.1581-6.1703l-1.6681-0.96361 0.58903-1.0202 1.7821 1.0294c0.56257-0.77959 1.1113-1.5694 1.6436-2.37 2.1966-3.3218 4.1071-6.8293 5.7288-10.467 0.90831-2.0154 1.546-4.1545 2.7223-6.0424z" stop-color="#000000" style="-inkscape-stroke:none;display:inline;fill:#800000;font-variation-settings:normal"/><path d="m-25.035 61.276c5.4876 4.3187 13.644 19.887 18.799 28.155l-0.25949-26.742 3.0482 10.61c0.50087 2.0694 1.2118 4.1002 1.3282 6.2415 0.47164 4.265 1.3672 8.4798 2.5981 12.589l1.9516-0.64784 0.37125 1.1182-1.9732 0.65483c1.1231 3.5281 2.5224 6.9675 4.1682 10.285 1.7784 3.5632 3.8609 6.9716 6.2002 10.195 1.2912 1.7943 2.8248 3.4165 3.8715 5.3792l6.2726 10.247 0.69176 2.9989-2.4048-3.4579c-7.0135-8.1412-13.435-16.368-21.637-24.338-0.29718-0.2887-0.86117 4.6279-1.1631 4.3399-0.28794-0.27524-0.31422-5.7546-0.60691-6.0288-1.0246-1.3142-1.9519-2.6546-2.8063-4.0217-0.092895-0.1489-2.8441-0.1067-2.9354-0.2561-0.083298-0.13631 2.4933-0.46429 2.4113-0.60111-6.3496-10.607-8.6666-22.793-17.927-36.72z" stop-color="#000000" style="-inkscape-stroke:none;display:inline;fill:#800000;font-variation-settings:normal"/><path d="m59.981-8.2434 4.1456 0.74465c10.716 0.79752 21.074 2.0737 32.509 1.9093 0.41424-6e-3 -2.6636-3.8811-2.2464-3.8908 0.39822-9e-3 4.2913 3.847 4.6922 3.8339 1.6539 0.20479 3.2576 0.49688 4.8283 0.85947 0.17096 0.039598 2.0864-1.9359 2.2565-1.8947 0.15521 0.037447-1.4347 2.0911-1.28 2.13 11.99 3.0102 22.246 9.9884 38.64 13.289-6.9341 0.82659-23.711-4.414-33.201-6.6159l19.093 18.726-9.6579-5.3468c-1.8175-1.1092-3.7556-2.0425-5.3522-3.4743-3.3936-2.7177-7.0581-5.0932-10.889-7.1471-1.0907-0.58408-2.1986-1.1354-3.3186-1.6613l-1.0119 1.752-1.0202-0.58888 0.95735-1.6584c-2.1953-0.9869-4.4388-1.8667-6.7199-2.6351-3.7771-1.262-7.6601-2.1995-11.593-2.8246-2.1818-0.35577-4.4128-0.41836-6.5408-1.0659l-11.682-2.81z" stop-color="#000000" style="-inkscape-stroke:none;display:inline;fill:#800000;font-variation-settings:normal"/><path d="m140.42 104.49 2.7177-1.4444-2.7177 3.2178c-6.0486 8.8816-12.333 17.214-17.909 27.199-0.20193 0.36177 4.6932-0.36636 4.4931-1.5e-4 -0.19134 0.34937-5.4771 1.793-5.6663 2.1467-1.0043 1.3299-2.0589 2.5728-3.1582 3.752-0.11978 0.12826 0.63287 2.7746 0.51214 2.9014-0.1101 0.11573-1.0933-2.2882-1.2042-2.1737-8.6021 8.8788-19.774 14.271-30.83 26.819 2.7512-6.4184 15.678-18.327 22.33-25.445l-25.764 7.1718 9.4594-5.6899c1.8693-1.0194 3.6464-2.2316 5.6846-2.8983 4.0504-1.5801 7.9398-3.5657 11.634-5.8562 2.279-1.4147 4.4732-2.9636 6.5794-4.625l-1.3619-1.3625 0.83301-0.83299 1.455 1.4555c0.74517-0.60742 1.4797-1.2283 2.201-1.8639 2.9815-2.6401 5.7347-5.5336 8.2426-8.6274 1.399-1.7117 2.5686-3.6128 4.1934-5.132z" stop-color="#000000" style="-inkscape-stroke:none;display:inline;fill:#800000;font-variation-settings:normal"/><path d="m-19.316 36.812c4.1829 5.5918 8.0321 22.741 10.871 32.061l6.6707-25.898 0.19826 11.037c-0.051803 2.1285 0.10927 4.2741-0.33245 6.3726-0.64829 4.2417-0.87413 8.5448-0.74872 12.833l2.0528-0.12065 0.069194 1.1762-2.0754 0.12182c0.17169 3.6986 0.63311 7.383 1.3642 11.013 0.79563 3.9021 1.925 7.7334 3.3503 11.452 0.78282 2.0674 1.8443 4.0312 2.3473 6.1979l3.4068 11.521-0.10799 3.0758-1.4279-3.9624c-4.6674-9.679-8.7412-19.287-14.6-29.109-0.21234-0.35578-2.0296 4.2474-2.2467 3.891-0.20689-0.34039 1.1859-5.6398 0.97416-5.9805-0.64952-1.5346-1.1983-3.0694-1.6698-4.611-0.05119-0.16787-2.7196-0.83916-2.7691-1.0071-0.04518-0.15323 2.5285 0.19684 2.4847 0.04347-3.388-11.889-2.4721-24.259-7.8119-40.109z" stop-color="#000000" style="-inkscape-stroke:none;display:inline;fill:#800000;font-variation-settings:normal"/></g></g><circle cx="70.75" cy="72.434" r="72.5" fill="#e6a000" stop-color="#000000" style="-inkscape-stroke:none;font-variation-settings:normal;stroke-width:0"/></g><g transform="translate(-.0068202 1.7025)"><g transform="rotate(75,64.015,63.988)" stroke-width=".18519"><path d="m65.818 35.647c-3.7796 2.1825-7.5605 4.3636-11.34 6.5469 6.2711 6.2744 12.544 12.547 18.818 18.818-2.2931-8.568-4.5879-17.136-6.8828-25.703-0.19856 0.11263-0.39713 0.22526-0.5957 0.33789z" fill="#fff"/><path d="m54.88 42.044c-2.1809 3.7774-4.3623 7.5545-6.543 11.332 8.5692 2.2981 17.139 4.5949 25.709 6.8887-6.2738-6.2725-12.545-12.548-18.82-18.818-0.11523 0.19922-0.23046 0.39844-0.3457 0.59766z" fill="#f2f2f2" stop-color="#000000" style="-inkscape-stroke:none;font-variation-settings:normal"/><path d="m48.611 53.044v13.088c8.57-2.295 17.139-4.592 25.709-6.8887-8.5695-2.2967-17.139-4.5937-25.709-6.8887v0.68946z" fill="#f9f9f9" stop-color="#000000" style="-inkscape-stroke:none;font-variation-settings:normal"/><path d="m72.138 58.731c-7.9335 2.1267-15.868 4.2503-23.801 6.3789 2.2961 3.9767 4.5916 7.9536 6.8887 11.93 6.2754-6.2708 12.547-12.546 18.82-18.818-0.63607 0.16992-1.2721 0.33984-1.9082 0.50977z" fill="#fff"/><path d="m71.9 58.868c-5.807 5.8083-11.617 11.614-17.422 17.424 3.9761 2.2971 7.953 4.5926 11.93 6.8887 2.2981-8.5692 4.5949-17.139 6.8887-25.709-0.4655 0.46549-0.93099 0.93099-1.3965 1.3965z" fill="#f2f2f2" stop-color="#000000" style="-inkscape-stroke:none;font-variation-settings:normal"/><path d="m71.763 59.106c-2.1254 7.9336-4.2527 15.867-6.377 23.801h13.777c-2.295-8.57-4.592-17.139-6.8887-25.709-0.17057 0.63607-0.34114 1.2721-0.51172 1.9082z" fill="#f9f9f9" stop-color="#000000" style="-inkscape-stroke:none;font-variation-settings:normal"/><path d="m71.763 59.38c2.1267 7.9335 4.2503 15.868 6.3789 23.801 3.9767-2.296 7.9536-4.5916 11.93-6.8887-6.2708-6.2754-12.546-12.547-18.818-18.82 0.16992 0.63607 0.33984 1.2721 0.50976 1.9082z" fill="#fff"/><path d="m71.9 59.618c5.8083 5.807 11.614 11.617 17.424 17.422 2.2971-3.9761 4.5926-7.953 6.8887-11.93-8.5692-2.2981-17.139-4.5949-25.709-6.8887l1.3965 1.3965z" fill="#f2f2f2" stop-color="#000000" style="-inkscape-stroke:none;font-variation-settings:normal"/><path d="m95.273 52.532c-8.3476 2.2371-16.696 4.4732-25.043 6.7109 8.5695 2.2967 17.139 4.5937 25.709 6.8887 0-4.5924 1e-5 -9.1849 0-13.777-0.222 0.0592-0.44401 0.11849-0.66601 0.17774z" fill="#f9f9f9" stop-color="#000000" style="-inkscape-stroke:none;font-variation-settings:normal"/><path d="m88.835 41.932-18.332 18.332c8.5703-2.2938 17.14-4.5906 25.709-6.8887-2.296-3.9767-4.5916-7.9536-6.8887-11.93l-0.48828 0.48633z" fill="#fff"/><path d="m77.962 35.972c-2.2359 8.3478-4.4755 16.695-6.709 25.043 6.2725-6.2738 12.548-12.545 18.818-18.82-3.9761-2.2971-7.953-4.5926-11.93-6.8887-0.0599 0.22201-0.11979 0.44401-0.17969 0.66602z" fill="#f2f2f2"/><path d="m65.568 36.245c2.2359 8.3476 4.4701 16.696 6.707 25.043 2.2967-8.5695 4.5937-17.139 6.8887-25.709h-13.773c0.0592 0.22201 0.11849 0.44401 0.17773 0.66602z" fill="#f9f9f9"/><g><path d="m71.841 29.7c-2.0355 2.2407-4.126 4.4424-6.1271 6.7074-0.11754 0.39492-1.0813 1.5148-0.1586 1.0185 1.1456-0.49146 2.4298-0.16509 3.6428-0.25913h10.346c-2.4385-2.6299-4.8767-5.26-7.3144-7.8906-0.12956 0.14127-0.25911 0.28255-0.38867 0.42383z" fill="#e6e6e6" stop-color="#000000" style="-inkscape-stroke:none;font-variation-settings:normal"/><path d="m86.722 33.442c-3.2324 1.0175-6.4647 2.0356-9.6973 3.0527 4.1924 2.4193 8.3846 4.839 12.576 7.2598-0.77763-3.4952-1.5532-6.9909-2.3301-10.486-0.18295 0.0579-0.36589 0.11588-0.54883 0.17382z" fill="#b3b3b3" stop-color="#000000" style="-inkscape-stroke:none;font-variation-settings:normal"/><path d="m88.365 42.958c2.2193 3.8451 4.4395 7.6897 6.6582 11.535 1.0754-3.4154 2.1492-6.8313 3.2266-10.246-3.4954-0.77689-6.9911-1.5524-10.486-2.3301 0.20052 0.34701 0.40105 0.69401 0.60157 1.041z" fill="#e6e6e6" stop-color="#000000" style="-inkscape-stroke:none;font-variation-settings:normal"/><path d="m94.351 53.186v13.316c2.6398-2.4194 5.2788-4.8397 7.918-7.2598-2.6392-2.4201-5.2782-4.8404-7.918-7.2598v1.2031z" fill="#b3b3b3" stop-color="#000000" style="-inkscape-stroke:none;font-variation-settings:normal"/><path d="m94.421 65.036c-2.2195 3.8443-4.4379 7.6893-6.6582 11.533 3.4952-0.77764 6.9909-1.5532 10.486-2.3301-1.0773-3.4148-2.1511-6.8307-3.2266-10.246-0.20052 0.34766-0.40104 0.69532-0.60156 1.043z" fill="#e6e6e6" stop-color="#000000" style="-inkscape-stroke:none;font-variation-settings:normal"/><path d="m88.56 75.333c-3.8451 2.2193-7.6897 4.4395-11.535 6.6582 3.4154 1.0754 6.8313 2.1492 10.246 3.2266 0.77688-3.4954 1.5524-6.9911 2.3301-10.486-0.347 0.20052-0.69401 0.40104-1.041 0.60156z" fill="#b3b3b3" stop-color="#000000" style="-inkscape-stroke:none;font-variation-settings:normal"/><path d="m65.827 82.206c2.1491 2.3437 4.2979 4.6877 6.4473 7.0312 2.4201-2.6392 4.8404-5.2782 7.2598-7.918h-14.52c0.27083 0.29557 0.54166 0.59114 0.8125 0.88672z" fill="#e6e6e6" stop-color="#000000" style="-inkscape-stroke:none;font-variation-settings:normal"/><path d="m55.21 75.907c0.68946 3.1035 1.3788 6.207 2.0684 9.3105 3.4148-1.0773 6.8307-2.1511 10.246-3.2266-4.1924-2.4193-8.3846-4.839-12.576-7.2598 0.0872 0.39192 0.17448 0.78385 0.26172 1.1758z" fill="#b3b3b3" stop-color="#000000" style="-inkscape-stroke:none;font-variation-settings:normal"/><path d="m49.165 65.141c-0.95098 3.0161-1.8982 6.0335-2.8516 9.0488 3.4925 0.79419 6.9844 1.5909 10.477 2.3867-2.4212-4.1947-4.8432-8.3889-7.2637-12.584-0.12045 0.38282-0.24089 0.76563-0.36133 1.1484z" fill="#e6e6e6" stop-color="#000000" style="-inkscape-stroke:none;font-variation-settings:normal"/><path d="m49.312 52.796c-2.3437 2.1491-4.6877 4.2979-7.0312 6.4473 2.6392 2.4201 5.2782 4.8404 7.918 7.2598v-14.52c-0.29557 0.27083-0.59115 0.54167-0.88672 0.8125z" fill="#b3b3b3" stop-color="#000000" style="-inkscape-stroke:none;font-variation-settings:normal"/><path d="m55.271 41.328c-3.0867 0.68508-6.1725 1.374-9.2598 2.0566 1.0574 3.4216 2.1135 6.8437 3.1699 10.266 2.4232-4.1939 4.8426-8.39 7.2656-12.584-0.39193 0.0872-0.78386 0.17448-1.1758 0.26172z" fill="#e6e6e6"/><path d="m57.154 33.829c-0.73515 3.3086-1.469 6.6174-2.2051 9.9258 4.1659-2.4069 8.3345-4.8092 12.5-7.2168-3.3902-1.0912-6.7797-2.1842-10.17-3.2754-0.0417 0.1888-0.0833 0.3776-0.125 0.5664z" fill="#b3b3b3"/><path d="m60.665 18.02c-1.206 5.4264-2.4097 10.853-3.6172 16.279 3.0876 0.99574 6.1757 1.99 9.2637 2.9844 2.2144-2.4087 4.427-4.8191 6.6406-7.2285-4.0235-4.3392-8.0461-8.6792-12.068-13.02-0.0729 0.32813-0.14584 0.65625-0.21875 0.98438z" fill="#999" stop-color="#000000" style="-inkscape-stroke:none;font-variation-settings:normal"/><path d="m41.814 28.585c-0.48255 0.36449 0.14266 1.001 0.16237 1.4886 1.5632 5.0591 3.1256 10.118 4.6892 15.177 3.1674-0.70702 6.3358-1.4097 9.5039-2.1133 0.70615-3.1831 1.4125-6.3662 2.1211-9.5488-5.4156-1.7454-10.832-3.4876-16.248-5.2324-0.0762 0.0762-0.15234 0.15234-0.22852 0.22851z" fill="#999" stop-color="#000000" style="-inkscape-stroke:none;font-variation-settings:normal"/><path d="m46.911 44.112c-5.6706 1.2581-11.341 2.5189-17.012 3.7754 4.3865 4.0264 8.7766 8.0488 13.164 12.074 2.4025-2.2044 4.807-4.4065 7.209-6.6113-0.95944-3.1159-1.9228-6.2306-2.8848-9.3457-0.15885 0.0358-0.3177 0.0716-0.47656 0.10743z" fill="#ececec"/><path d="m42.706 58.852c-4.226 3.8749-8.4511 7.7508-12.678 11.625 5.7732 1.3172 11.547 2.6305 17.32 3.9492 0.97451-3.0966 1.9494-6.193 2.9258-9.2891-2.4025-2.2057-4.8079-4.4082-7.2109-6.6133-0.11914 0.10938-0.23828 0.21875-0.35742 0.32813z" fill="#ccc" stop-color="#000000" style="-inkscape-stroke:none;font-variation-settings:normal"/><path d="m46.488 73.643c-1.7453 5.5402-3.4866 11.082-5.2344 16.621 5.6782-1.7909 11.358-3.5786 17.037-5.3652-0.70704-3.1829-1.4144-6.3658-2.1211-9.5488-3.1783-0.72479-6.3573-1.4469-9.5352-2.1738-0.0488 0.1556-0.0977 0.3112-0.14649 0.4668z" fill="#999" stop-color="#000000" style="-inkscape-stroke:none;font-variation-settings:normal"/><path d="m66.06 81.345c-3.004 0.94496-6.0071 1.8928-9.0117 2.8359 1.2902 5.8126 2.5828 11.625 3.8711 17.438 4.0264-4.3865 8.0489-8.7766 12.074-13.164-2.205-2.4031-4.4076-4.8084-6.6133-7.2109-0.10677 0.0339-0.21354 0.0677-0.32031 0.10157z" fill="#999" stop-color="#000000" style="-inkscape-stroke:none;font-variation-settings:normal"/><path d="m77.941 81.491c-2.1283 2.3209-4.2561 4.6423-6.3848 6.9629 4.0254 4.3874 8.0478 8.7776 12.074 13.164 1.2882-5.813 2.5809-11.625 3.8711-17.438-3.1113-0.97722-6.2216-1.9574-9.332-2.9375-0.0762 0.0827-0.15234 0.16537-0.22851 0.24805z" fill="#ececec" stop-color="#000000" style="-inkscape-stroke:none;font-variation-settings:normal"/><path d="m97.456 73.333c-3.0254 0.67168-6.0505 1.3449-9.0762 2.0156-0.70585 3.1839-1.4142 6.3672-2.1211 9.5508 5.6796 1.7866 11.359 3.5744 17.037 5.3652-1.7909-5.6782-3.5786-11.358-5.3652-17.037-0.1582 0.0352-0.3164 0.0703-0.47461 0.10547z" fill="#ccc"/><path d="m101.13 58.852c-2.2843 2.0952-4.5701 4.1889-6.8535 6.2852 0.98013 3.1104 1.9603 6.2207 2.9375 9.332 5.8125-1.2902 11.625-2.5828 17.438-3.8711-4.3865-4.0264-8.7766-8.0488-13.164-12.074-0.11914 0.10938-0.23828 0.21875-0.35742 0.32813z" fill="#999" stop-color="#000000" style="-inkscape-stroke:none;font-variation-settings:normal"/><path d="m97.068 44.479c-0.9312 2.9563-1.8607 5.9132-2.793 8.8691 2.4025 2.2057 4.8079 4.4082 7.2109 6.6133 4.3874-4.0254 8.7776-8.0478 13.164-12.074-5.813-1.2882-11.625-2.5809-17.438-3.8711-0.0482 0.1543-0.0964 0.3086-0.14453 0.46289z" fill="#999" stop-color="#000000" style="-inkscape-stroke:none;font-variation-settings:normal"/><path d="m102.33 28.528c-5.3562 1.6858-10.712 3.3746-16.068 5.0586 0.7069 3.1836 1.4152 6.3669 2.1211 9.5508 3.1839 0.70585 6.3672 1.4142 9.5508 2.1211 1.7866-5.6796 3.5744-11.359 5.3652-17.037-0.32292 0.10221-0.64584 0.20443-0.96875 0.30664z" fill="#ececec"/><path d="m82.943 17.616c-3.8105 4.1478-7.6212 8.2955-11.432 12.443 2.2209 2.3938 4.4396 4.7896 6.6602 7.1836 3.1094-0.98124 6.2195-1.9601 9.3301-2.9375-1.2902-5.8125-2.5828-11.625-3.8711-17.438-0.22917 0.24935-0.45833 0.4987-0.6875 0.74805z" fill="#ccc"/><path d="m60.947 17.518c-6.6846 3.8599-13.371 7.7185-20.055 11.58 5.7228 1.8421 11.445 3.6854 17.168 5.5274 1.3062-5.9089 2.6332-11.814 3.9297-17.725-0.34766 0.20573-0.69532 0.41146-1.043 0.61719z" fill="#ccc"/><path d="m41.925 28.503c-0.60848 0.40495-0.7856 1.2444-1.2204 1.8244-3.5868 6.2114-7.1727 12.423-10.76 18.635 5.9191-1.3147 11.838-2.63 17.758-3.9414-1.7358-5.615-3.4692-11.231-5.2051-16.846-0.19076 0.10937-0.38151 0.21875-0.57227 0.32812z" fill="#fff"/><path d="m30.476 48.184v23.324c4.4531-4.0929 8.9148-8.1762 13.371-12.266-4.457-4.0873-8.9134-8.1752-13.371-12.262v1.2031z" fill="#f9f9f9"/><path d="m30.771 69.798c-0.76006 0.33608-0.10456 0.88734 0.12541 1.3738 3.7699 6.5298 7.541 13.059 11.31 19.589 1.8211-5.7825 3.639-11.566 5.4629-17.348-5.5648-1.2669-11.129-2.5355-16.693-3.8047-0.0684 0.0632-0.13671 0.1263-0.20507 0.18945z" fill="#f9f9f9"/><path d="m57.511 84.036c-5.5847 1.7584-11.169 3.5175-16.754 5.2754 7.0793 4.0864 14.158 8.1739 21.236 12.262-1.3124-5.9034-2.622-11.807-3.9336-17.711-0.18294 0.0579-0.36589 0.11588-0.54883 0.17382z" fill="#ccc"/><path d="m71.884 88.097c-3.9569 4.3152-7.9148 8.6295-11.871 12.945h24.523c-4.0865-4.4577-8.1744-8.9141-12.262-13.371-0.13021 0.14193-0.26041 0.28385-0.39062 0.42578z" fill="#fff"/><path d="m86.365 84.425c-1.2697 5.7161-2.5379 11.433-3.8086 17.148 7.0785-4.0878 14.157-8.1753 21.236-12.262-5.7677-1.8162-11.536-3.6311-17.303-5.4492-0.0417 0.1875-0.0833 0.375-0.125 0.5625z" fill="#f9f9f9"/><path d="m113.43 69.786c-5.5117 1.224-11.023 2.4478-16.535 3.6719 1.8182 5.767 3.6331 11.535 5.4492 17.303 4.0864-7.0793 8.1739-14.158 12.262-21.236-0.39193 0.0872-0.78386 0.17448-1.1758 0.26172z" fill="#f9f9f9"/><path d="m113.19 47.794c-4.1614 3.8164-8.3231 7.6326-12.484 11.449 4.457 4.0873 8.9134 8.1752 13.371 12.262v-24.523c-0.29557 0.27083-0.59115 0.54166-0.88672 0.8125z" fill="#ccc"/><path d="m101.98 28.874c-1.6963 5.3847-3.3901 10.77-5.0879 16.154 5.9036 1.3116 11.808 2.6212 17.711 3.9336-4.0878-7.0784-8.1753-14.157-12.262-21.236-0.12044 0.38281-0.24088 0.76562-0.36133 1.1484z" fill="#fff"/><path d="m82.818 18.089c1.224 5.5117 2.4477 11.023 3.6719 16.535 5.767-1.8181 11.535-3.6331 17.303-5.4492-7.0793-4.0864-14.158-8.1739-21.236-12.262 0.0872 0.39192 0.17448 0.78385 0.26172 1.1758z" fill="#f9f9f9"/><path d="m60.699 17.862c-0.29616 0.6375 0.54766 0.963 0.84154 1.4395 3.5645 3.8457 7.1295 7.6909 10.694 11.537 4.1008-4.4656 8.2034-8.9294 12.305-13.395h-23.748c-0.0306 0.13932-0.0612 0.27864-0.0918 0.41797z" fill="#f9f9f9"/></g><g stop-color="#000000" style="-inkscape-stroke:none;font-variation-settings:normal"><path d="m48.294 18.239c-2.4296 4.2084-4.8599 8.4163-7.2891 12.625 7.4429-4.2966 14.886-8.593 22.328-12.891h-14.885c-0.0514 0.0885-0.10286 0.17709-0.1543 0.26563z" fill="#e6e6e6" stop-color="#000000" style="-inkscape-stroke:none;font-variation-settings:normal"/><path d="m42.187 28.96c-3.7271 2.1526-7.4552 4.3033-11.182 6.457v14.885c4.2976-7.4423 8.5941-14.885 12.891-22.328-0.56967 0.32878-1.1393 0.65756-1.709 0.98633z" fill="#ccc" stop-color="#000000" style="-inkscape-stroke:none;font-variation-settings:normal"/><path d="m31.076 48.063c-2.1517 3.7265-4.3032 7.4532-6.4551 11.18 2.4813 4.2968 4.9616 8.5941 7.4434 12.891 0-8.5938 1e-5 -17.188 0-25.781-0.32942 0.57031-0.65885 1.1406-0.98828 1.7109z" fill="#e6e6e6" stop-color="#000000" style="-inkscape-stroke:none;font-variation-settings:normal"/><path d="m31.005 70.159v12.91c4.2961 2.4824 8.5936 4.9626 12.891 7.4434-4.2966-7.4429-8.593-14.886-12.891-22.328z" fill="#ccc" stop-color="#000000" style="-inkscape-stroke:none;font-variation-settings:normal"/><path d="m41.992 89.331c2.1526 3.7271 4.3033 7.4552 6.457 11.182h14.885c-7.4423-4.2976-14.885-8.5941-22.328-12.891 0.32878 0.56966 0.65755 1.1393 0.98633 1.709z" fill="#e6e6e6" stop-color="#000000" style="-inkscape-stroke:none;font-variation-settings:normal"/><path d="m61.095 100.44c3.7266 2.1517 7.4532 4.3032 11.18 6.4551 4.2968-2.4813 8.5941-4.9616 12.891-7.4434h-25.781c0.57031 0.32942 1.1406 0.65885 1.7109 0.98828z" fill="#ccc" stop-color="#000000" style="-inkscape-stroke:none;font-variation-settings:normal"/><path d="m101.84 88.608c-6.873 3.9682-13.747 7.9354-20.619 11.904h14.885c2.4824-4.2961 4.9626-8.5936 7.4434-12.891-0.56966 0.32878-1.1393 0.65755-1.709 0.98633z" fill="#e6e6e6" stop-color="#000000" style="-inkscape-stroke:none;font-variation-settings:normal"/><path d="m112.56 69.895c-3.9674 6.8724-7.9353 13.745-11.902 20.617 4.2971-2.4808 8.5945-4.9609 12.891-7.4434v-14.885c-0.32943 0.57031-0.65885 1.1406-0.98828 1.7109z" fill="#ccc" stop-color="#000000" style="-inkscape-stroke:none;font-variation-settings:normal"/><path d="m112.49 48.327v23.807c2.4817-4.2965 4.962-8.5939 7.4434-12.891-2.4813-4.2967-4.9616-8.5941-7.4434-12.891v1.9746z" fill="#e6e6e6" stop-color="#000000" style="-inkscape-stroke:none;font-variation-settings:normal"/><path d="m101.64 29.682c3.9682 6.873 7.9354 13.747 11.904 20.619v-14.885c-4.2961-2.4824-8.5936-4.9626-12.891-7.4434 0.32877 0.56966 0.65755 1.1393 0.98633 1.709z" fill="#ccc" stop-color="#000000" style="-inkscape-stroke:none;font-variation-settings:normal"/><path d="m82.927 18.962c6.8724 3.9674 13.745 7.9353 20.617 11.902-2.4808-4.2971-4.9609-8.5945-7.4434-12.891h-14.885c0.57031 0.32943 1.1406 0.65886 1.7109 0.98828z" fill="#e6e6e6" stop-color="#000000" style="-inkscape-stroke:none;font-variation-settings:normal"/><path d="m72.011 11.741c-4.209 2.4304-8.4183 4.8601-12.627 7.291h25.781c-4.2965-2.4817-8.5939-4.962-12.891-7.4434-0.0879 0.0508-0.17578 0.10156-0.26367 0.15234z" fill="#ccc" stop-color="#000000" style="-inkscape-stroke:none;font-variation-settings:normal"/><path d="m31.005 18.503v18.135c3.9445-2.2764 7.889-4.553 11.832-6.832 2.279-3.943 4.5556-7.8875 6.832-11.832h-18.664v0.5293z" fill="#b3b3b3" stop-color="#000000" style="-inkscape-stroke:none;font-variation-settings:normal"/><path d="m31.271 35.263c-5.1236 2.9585-10.248 5.9157-15.371 8.875 3.1104 5.3882 6.2213 10.776 9.332 16.164 2.2775-3.944 4.5541-7.8884 6.832-11.832 0-4.5547 1e-5 -9.1094 0-13.664-0.26432 0.15235-0.52864 0.30469-0.79296 0.45704z" fill="#f2f2f2" stop-color="#000000" style="-inkscape-stroke:none;font-variation-settings:normal"/><path d="m24.773 58.979c-2.9576 5.1231-5.9156 10.246-8.873 15.369 5.3876 3.1114 10.775 6.2224 16.164 9.332 1e-5 -4.5547 1e-5 -9.1094 0-13.664-2.2779-3.9437-4.5546-7.8881-6.832-11.832-0.15299 0.26497-0.30599 0.52995-0.45898 0.79492z" fill="#b3b3b3" stop-color="#000000" style="-inkscape-stroke:none;font-variation-settings:normal"/><path d="m31.005 82.764v17.748h18.664c-2.2764-3.9445-4.553-7.889-6.832-11.832-3.943-2.279-7.8875-4.5556-11.832-6.832v0.91602z" fill="#f2f2f2" stop-color="#000000" style="-inkscape-stroke:none;font-variation-settings:normal"/><path d="m48.294 100.25c2.9585 5.1236 5.9157 10.248 8.875 15.371 5.3882-3.1104 10.776-6.2213 16.164-9.332-3.944-2.2775-7.8884-4.5541-11.832-6.832h-13.664c0.15235 0.26432 0.30469 0.52864 0.45703 0.79297z" fill="#b3b3b3" stop-color="#000000" style="-inkscape-stroke:none;font-variation-settings:normal"/><path d="m82.927 99.524c-3.9036 2.2539-7.8073 4.5078-11.711 6.7617 5.388 3.1107 10.776 6.2216 16.164 9.332 3.1114-5.3876 6.2224-10.775 9.332-16.164h-13.664l-0.0865 0.0502z" fill="#f2f2f2" stop-color="#000000" style="-inkscape-stroke:none;font-variation-settings:normal"/><path d="m112.75 82.306c-3.6795 2.1253-7.3604 4.2482-11.039 6.375-2.279 3.9431-4.5556 7.8875-6.832 11.832h18.664v-18.664c-0.26432 0.15235-0.52864 0.30469-0.79297 0.45703z" fill="#b3b3b3" stop-color="#000000" style="-inkscape-stroke:none;font-variation-settings:normal"/><path d="m118.86 58.979c-2.1244 3.679-4.2481 7.3584-6.373 11.037v13.664c5.3886-3.1097 10.776-6.2206 16.164-9.332-3.1104-5.3882-6.2213-10.776-9.332-16.164-0.153 0.26497-0.30599 0.52995-0.45899 0.79492z" fill="#f2f2f2" stop-color="#000000" style="-inkscape-stroke:none;font-variation-settings:normal"/><path d="m112.49 35.722v12.748c2.2779 3.9437 4.5546 7.8881 6.832 11.832 3.1107-5.388 6.2216-10.776 9.332-16.164-5.3876-3.1114-10.775-6.2224-16.164-9.332v0.91602z" fill="#b3b3b3" stop-color="#000000" style="-inkscape-stroke:none;font-variation-settings:normal"/><path d="m95.337 18.766c2.1253 3.6795 4.2482 7.3604 6.375 11.039 3.9431 2.279 7.8875 4.5556 11.832 6.832v-18.664h-18.664c0.15235 0.26433 0.30469 0.52865 0.45703 0.79297z" fill="#f2f2f2" stop-color="#000000" style="-inkscape-stroke:none;font-variation-settings:normal"/><path d="m86.923 3.1317c-5.2357 3.0228-10.471 6.0455-15.707 9.0684 3.9439 2.2774 7.8884 4.5541 11.832 6.832h13.664c-3.1097-5.3886-6.2206-10.776-9.332-16.164-0.15234 0.0879-0.30469 0.17579-0.45703 0.26368z" fill="#b3b3b3" stop-color="#000000" style="-inkscape-stroke:none;font-variation-settings:normal"/><path d="m56.904 3.327c-3.022 5.2351-6.0454 10.469-9.0664 15.705h13.664c3.9437-2.2779 7.8881-4.5546 11.832-6.832-5.388-3.1107-10.776-6.2216-16.164-9.332-0.0885 0.153-0.17708 0.30599-0.26562 0.45899z" fill="#f2f2f2" stop-color="#000000" style="-inkscape-stroke:none;font-variation-settings:normal"/><path d="m55.609-2.8996c-3.365 0.94631-6.6749 2.092-9.856 3.546-3.4096 1.5413-6.6811 3.3865-9.7718 5.4965-3.0905 2.1099-5.9952 4.4916-8.6713 7.1081-0.26813 0.40447-1.3267 0.79491-0.56105 1.2155 1.5226 1.5217 3.0429 3.0456 4.5673 4.5655h17.742c2.9591-5.1216 5.9151-10.245 8.873-15.367-0.59978-2.2402-1.2002-4.4802-1.7988-6.7207-0.17447 0.0521-0.34895 0.10416-0.52343 0.15625z" fill="#fff" stop-color="#000000" style="-inkscape-stroke:none;font-variation-settings:normal"/><path d="m26.771 13.761c-2.4181 2.4766-4.6932 5.0949-6.7022 7.9162-2.1877 3.0353-4.1071 6.2646-5.7305 9.6361-1.6457 3.3979-2.9785 6.9465-4.0012 10.581-0.0309 0.48454-0.75215 1.3562 0.12207 1.3353 2.0792 0.55663 4.1585 1.113 6.2376 1.67 5.1223-2.9579 10.246-5.914 15.367-8.873 0-5.9141 1e-5 -11.828 0-17.742-1.6383-1.6416-3.2784-3.2815-4.9199-4.9199-0.12435 0.13216-0.24869 0.26432-0.37304 0.39648z" fill="#e6e6e6" stop-color="#000000" style="-inkscape-stroke:none;font-variation-settings:normal"/><path d="m10.126 42.604c-1.1122 4.2258-1.8411 8.5509-2.1069 12.914-0.29317 4.9072 3e-3 9.8497 0.86148 14.689 0.34159 2.0915 0.87244 4.1421 1.3724 6.1996 2.2403-0.5962 4.4789-1.199 6.7188-1.7969 2.9554-5.1234 5.9142-10.245 8.8711-15.367-2.9569-5.1224-5.9157-10.244-8.8711-15.367-2.2399-0.59792-4.4784-1.2007-6.7188-1.7969-0.0423 0.17513-0.0846 0.35026-0.12695 0.52539z" fill="#ccc" stop-color="#000000" style="-inkscape-stroke:none;font-variation-settings:normal"/><path d="m16.486 73.643c-2.17 0.58058-4.3396 1.1624-6.5098 1.7422 0.97148 3.4073 2.0661 6.7868 3.5443 10.012 1.2794 2.9048 2.7926 5.7097 4.5009 8.3846 2.0065 3.1586 4.2878 6.1445 6.8205 8.8987 0.76732 0.81379 1.5358 1.6265 2.3023 2.4411 1.6416-1.6384 3.2816-3.2783 4.9199-4.9199 1e-5 -5.9141 0-11.828 0-17.742-5.1216-2.9591-10.245-5.9151-15.367-8.873-0.0703 0.0189-0.14063 0.0378-0.21094 0.0567z" fill="#ececec" stop-color="#000000" style="-inkscape-stroke:none;font-variation-settings:normal"/><path d="m31.16 99.608c-1.5876 1.5888-3.1777 3.1752-4.7637 4.7656 2.4985 2.4149 5.0768 4.7586 7.9116 6.7767 2.578 1.9088 5.3208 3.5973 8.1607 5.0864 3.3456 1.7496 6.8435 3.2119 10.446 4.3408 1.0727 0.32129 2.145 0.64392 3.218 0.96418 0.59866-2.2405 1.1991-4.4805 1.7988-6.7207-2.9579-5.1223-5.914-10.246-8.873-15.367h-17.742c-0.0521 0.0514-0.10417 0.10286-0.15625 0.15429z" fill="#fff" stop-color="#000000" style="-inkscape-stroke:none;font-variation-settings:normal"/><path d="m72.011 105.83c-5.0347 2.906-10.068 5.8142-15.104 8.7188-0.59791 2.2399-1.2006 4.4784-1.7969 6.7188 4.175 1.0879 8.4305 1.9041 12.742 2.177 5.0354 0.38808 10.116 0.0913 15.092-0.74908 2.1897-0.36053 4.3414-0.89687 6.4944-1.4279-0.59619-2.2403-1.199-4.4789-1.7969-6.7188-5.1234-2.9554-10.245-5.9142-15.367-8.8711-0.0879 0.0508-0.17578 0.10156-0.26367 0.15234z" fill="#e6e6e6" stop-color="#000000" style="-inkscape-stroke:none;font-variation-settings:normal"/><path d="m95.337 99.72c-2.9062 5.0339-5.8125 10.068-8.7188 15.102 0.59979 2.2402 1.2002 4.4802 1.7988 6.7207 3.4073-0.97147 6.7868-2.066 10.012-3.5443 2.9048-1.2794 5.7097-2.7926 8.3846-4.5009 3.1586-2.0065 6.1445-4.2878 8.8986-6.8205 0.81379-0.76733 1.6265-1.5358 2.4411-2.3023-1.6384-1.6416-3.2783-3.2816-4.9199-4.9199h-17.742c-0.0514 0.0885-0.10287 0.17708-0.1543 0.26562z" fill="#ccc" stop-color="#000000" style="-inkscape-stroke:none;font-variation-settings:normal"/><path d="m127.66 73.696c-5.0591 2.9215-10.119 5.841-15.178 8.7637v17.742c1.6383 1.6417 3.2784 3.2815 4.9199 4.9199 2.4149-2.4985 4.7586-5.0768 6.7767-7.9116 1.9087-2.5781 3.5975-5.3207 5.0862-8.1608 1.7484-3.3462 3.2128-6.8431 4.3409-10.446 0.32129-1.0727 0.64392-2.145 0.96418-3.218-2.2405-0.59866-4.4805-1.199-6.7207-1.7988-0.0631 0.0365-0.1263 0.0729-0.18945 0.10938z" fill="#ececec" stop-color="#000000" style="-inkscape-stroke:none;font-variation-settings:normal"/><path d="m133.81 42.206c-2.0782 0.55651-4.156 1.114-6.2344 1.6699-2.9554 5.1234-5.9142 10.245-8.8711 15.367 2.9569 5.1225 5.9157 10.244 8.8711 15.367 2.2399 0.59792 4.4784 1.2007 6.7188 1.7969 1.0879-4.175 1.9041-8.4305 2.177-12.742 0.38197-5.0359 0.10877-10.118-0.72388-15.096-0.35342-2.1931-0.88639-4.3478-1.4141-6.5038-0.17448 0.0469-0.34896 0.0937-0.52344 0.14063z" fill="#fff" stop-color="#000000" style="-inkscape-stroke:none;font-variation-settings:normal"/><path d="m117.05 13.718c-1.5212 1.5225-3.0449 3.0423-4.5644 4.5664v17.742c5.1216 2.9591 10.245 5.9151 15.367 8.873 2.2531-0.60476 4.5072-1.2059 6.7598-1.8125-0.96505-3.3749-2.0423-6.7256-3.5037-9.9226-1.2856-2.9423-2.8168-5.7794-4.5432-8.4859-2.0058-3.1612-4.2916-6.1463-6.8246-8.9024-0.76798-0.81445-1.5372-1.6278-2.3042-2.4431-0.12891 0.12825-0.25781 0.25651-0.38672 0.38476z" fill="#e6e6e6" stop-color="#000000" style="-inkscape-stroke:none;font-variation-settings:normal"/><path d="m88.288-2.5675c-0.55668 2.0775-1.113 4.155-1.6699 6.2324 2.9579 5.1223 5.914 10.246 8.873 15.367h17.742c1.6521-1.6487 3.3024-3.2992 4.9512-4.9512-2.4999-2.4161-5.0794-4.7613-7.9154-6.7808-2.5797-1.9105-5.3246-3.6003-8.1669-5.0897-3.3487-1.7488-6.8487-3.2122-10.454-4.341-1.0726-0.32143-2.1453-0.64291-3.218-0.96431-0.0475 0.17579-0.095 0.35157-0.14258 0.52735z" fill="#ccc" stop-color="#000000" style="-inkscape-stroke:none;font-variation-settings:normal"/><path d="m68.919-5.0421c-4.3381 0.2662-8.6508 0.92656-12.855 2.033-0.6478 0.0816-1.2011 0.21972-0.76276 0.94731 0.53539 2.0007 1.0716 4.0012 1.6065 6.0021 5.1234 2.9554 10.245 5.9142 15.367 8.8711 5.1225-2.9569 10.244-5.9157 15.367-8.8711 0.60288-2.2528 1.2064-4.5054 1.8106-6.7578-4.18-1.0808-8.4411-1.8862-12.756-2.1488-2.587-0.20731-5.186-0.18216-7.7774-0.0758z" fill="#ececec" stop-color="#000000" style="-inkscape-stroke:none;font-variation-settings:normal"/></g></g></g></g></svg>
