<?xml version="1.0" encoding="UTF-8"?>
<svg width="11em" height="3.6em" version="1.1" viewBox="0 0 571.58 190.53" xml:space="preserve" xmlns="http://www.w3.org/2000/svg" xmlns:xlink="http://www.w3.org/1999/xlink"><defs><linearGradient id="a" x1="163.17" x2="353.67" y1="71.539" y2="71.539" gradientTransform="matrix(1.3047 0 0 1 -48.394 -.80075)" gradientUnits="userSpaceOnUse"><stop stop-color="#c87d00" offset="0"/><stop stop-color="#c87d00" stop-opacity="0" offset="1"/></linearGradient></defs><g transform="translate(25.772 17.426)"><rect x="-25.772" y="41.606" width="190.5" height="58.264" fill="#c87d00" stop-color="#000000" stroke-width="0" style="-inkscape-stroke:none;font-variation-settings:normal"/><g stroke-width="0"><path d="m40.549-3.0365-3.2179 2.7177c-8.8816 6.0487-17.214 12.333-27.199 17.908-0.36173 0.20193 0.36616-4.6929 0-4.4927-0.34935 0.19134-1.7929 5.4772-2.1466 5.6663-1.3299 1.0043-2.5727 2.0591-3.7517 3.1585-0.12826 0.11977-2.7748-0.63332-2.9016-0.51263-0.11564 0.11012 2.288 1.0936 2.1735 1.2046-8.8788 8.6021-14.271 19.773-26.819 30.829 6.4184-2.7512 18.327-15.678 25.445-22.33l-7.1722 25.764 5.6906-9.4594c1.0194-1.8693 2.2312-3.6467 2.898-5.6849 1.5801-4.0504 3.5659-7.9399 5.8565-11.634 0.65257-1.0512 1.3363-2.0826 2.0433-3.098l1.7523 1.0113 0.58911-1.0201-1.6583-0.95756c1.4077-1.9523 2.9108-3.836 4.5021-5.642 2.6401-2.9815 5.5341-5.7349 8.6279-8.2429 1.7116-1.399 3.6124-2.5687 5.1315-4.1935l8.7116-8.2744z" fill="#f5af0f" stop-color="#000000" style="-inkscape-stroke:none;font-variation-settings:normal"/><path d="m27.249 134.81-3.0758 0.108 3.9625 1.4278c9.6791 4.6674 19.288 8.7414 29.109 14.601 0.35576 0.21233-4.2476 2.0293-3.8912 2.2464 0.34038 0.20688 5.6398-1.1858 5.9805-0.9741 1.5347 0.64957 3.0695 1.1987 4.6111 1.6702 0.16786 0.0512 0.83923 2.7193 1.0072 2.7688 0.15322 0.0452-0.19727-2.5283-0.04393-2.4846 11.889 3.3882 24.26 2.4721 40.109 7.8114-5.5918-4.1829-22.741-8.0322-32.061-10.871l25.898-6.6709-11.037-0.19792c-2.1286 0.0518-4.2737-0.10939-6.3722 0.33228-4.2978 0.65678-8.6589 0.88193-13.003 0.74517-2.681-0.0857-5.3557-0.33-8.0104-0.71572l0.49816-1.8609-1.1379-0.30489-0.53227 1.988c-0.94906-0.15343-1.8956-0.32393-2.8381-0.51366-3.9021-0.79566-7.7332-1.9249-11.452-3.3502-2.0674-0.78285-4.0309-1.8445-6.1976-2.3477z" fill="#f5af0f" stop-color="#000000" style="-inkscape-stroke:none;font-variation-settings:normal"/><path d="m131.75-3.6664c-0.82656 6.9341 4.4143 23.71 6.6156 33.201l-18.726-19.093 5.347 9.6578c1.1091 1.8175 2.0424 3.7561 3.4742 5.3526 2.6823 3.3493 5.0294 6.9629 7.0647 10.739l-1.8381 0.92191 0.52813 1.0532 1.8583-0.93224c1.7006 3.2889 3.1432 6.7104 4.3253 10.22 1.262 3.7771 2.1996 7.6598 2.8246 11.593 0.35575 2.1818 0.41841 4.4132 1.0661 6.5412l2.8102 11.681 1.6314 2.6097-0.74465-4.1455c-0.79742-10.716-2.0736-21.074-1.91-32.509 6e-3 -0.41428 3.8814 2.6635 3.8912 2.2464 9e-3 -0.39824-3.8469-4.2913-3.8339-4.6922-0.20481-1.6538-0.4969-3.2573-0.85938-4.8281-0.0396-0.17096 1.9356-2.0865 1.8945-2.2567-0.0375-0.1553-2.0913 1.4347-2.1301 1.28-3.0103-11.99-9.9886-22.245-13.289-38.641z" fill="#f5af0f" stop-color="#000000" style="-inkscape-stroke:none;font-variation-settings:normal"/><ellipse cx="70.737" cy="70.762" rx="72.399" ry="74.195" fill="#e6a000" stop-color="#000000" style="-inkscape-stroke:none;font-variation-settings:normal"/><path d="m164.92 53.786c-6.4184-2.7512-18.326-15.678-25.445-22.33l7.1719 25.764-5.6904-9.4595c-1.0194-1.8693-2.2316-3.6469-2.8984-5.6851-1.5595-3.9976-3.5153-7.8371-5.7683-11.488l-1.7175 1.1309-0.648-0.98396 1.7365-1.1432c-1.998-3.1172-4.2398-6.0773-6.6877-8.8556-2.6401-2.9815-5.5338-5.7348-8.6276-8.2428-1.7117-1.399-3.6128-2.569-5.1318-4.1938l-8.7113-8.2744-1.4443-2.7177 3.2178 2.7176c8.8817 6.0486 17.214 12.333 27.199 17.909 0.36178 0.20194-0.36592-4.6932 2.3e-4 -4.4931 0.34937 0.19133 1.7929 5.4771 2.1466 5.6663 1.3298 1.0043 2.5725 2.059 3.7516 3.1583 0.12827 0.11978 2.7748-0.63299 2.9016-0.51232 0.11575 0.11011-2.2881 1.0938-2.1736 1.2047 8.8787 8.6021 14.271 19.773 26.819 30.829z" display="none" fill="#f00" stop-color="#000000" style="-inkscape-stroke:none;font-variation-settings:normal"/></g><g transform="rotate(75 64.015 63.988)" stroke-width=".18519"><path d="m65.818 35.647c-3.7796 2.1825-7.5605 4.3636-11.34 6.5469 6.2711 6.2744 12.544 12.547 18.818 18.818-2.2931-8.568-4.5879-17.136-6.8828-25.703-0.19856 0.11263-0.39713 0.22526-0.5957 0.33789z" fill="#fff"/><path d="m54.88 42.044c-2.1809 3.7774-4.3623 7.5545-6.543 11.332 8.5692 2.2981 17.139 4.5949 25.709 6.8887-6.2738-6.2725-12.545-12.548-18.82-18.818-0.11523 0.19922-0.23046 0.39844-0.3457 0.59766z" fill="#f2f2f2" stop-color="#000000" style="-inkscape-stroke:none;font-variation-settings:normal"/><path d="m48.611 53.044v13.088c8.57-2.295 17.139-4.592 25.709-6.8887-8.5695-2.2967-17.139-4.5937-25.709-6.8887v0.68946z" fill="#f9f9f9" stop-color="#000000" style="-inkscape-stroke:none;font-variation-settings:normal"/><path d="m72.138 58.731c-7.9335 2.1267-15.868 4.2503-23.801 6.3789 2.2961 3.9767 4.5916 7.9536 6.8887 11.93 6.2754-6.2708 12.547-12.546 18.82-18.818-0.63607 0.16992-1.2721 0.33984-1.9082 0.50977z" fill="#fff"/><path d="m71.9 58.868c-5.807 5.8083-11.617 11.614-17.422 17.424 3.9761 2.2971 7.953 4.5926 11.93 6.8887 2.2981-8.5692 4.5949-17.139 6.8887-25.709-0.4655 0.46549-0.93099 0.93099-1.3965 1.3965z" fill="#f2f2f2" stop-color="#000000" style="-inkscape-stroke:none;font-variation-settings:normal"/><path d="m71.763 59.106c-2.1254 7.9336-4.2527 15.867-6.377 23.801h13.777c-2.295-8.57-4.592-17.139-6.8887-25.709-0.17057 0.63607-0.34114 1.2721-0.51172 1.9082z" fill="#f9f9f9" stop-color="#000000" style="-inkscape-stroke:none;font-variation-settings:normal"/><path d="m71.763 59.38c2.1267 7.9335 4.2503 15.868 6.3789 23.801 3.9767-2.296 7.9536-4.5916 11.93-6.8887-6.2708-6.2754-12.546-12.547-18.818-18.82 0.16992 0.63607 0.33984 1.2721 0.50976 1.9082z" fill="#fff"/><path d="m71.9 59.618c5.8083 5.807 11.614 11.617 17.424 17.422 2.2971-3.9761 4.5926-7.953 6.8887-11.93-8.5692-2.2981-17.139-4.5949-25.709-6.8887l1.3965 1.3965z" fill="#f2f2f2" stop-color="#000000" style="-inkscape-stroke:none;font-variation-settings:normal"/><path d="m95.273 52.532c-8.3476 2.2371-16.696 4.4732-25.043 6.7109 8.5695 2.2967 17.139 4.5937 25.709 6.8887 0-4.5924 1e-5 -9.1849 0-13.777-0.222 0.0592-0.44401 0.11849-0.66601 0.17774z" fill="#f9f9f9" stop-color="#000000" style="-inkscape-stroke:none;font-variation-settings:normal"/><path d="m88.835 41.932c-6.1107 6.1107-12.221 12.221-18.332 18.332 8.5703-2.2938 17.14-4.5906 25.709-6.8887-2.296-3.9767-4.5916-7.9536-6.8887-11.93l-0.48828 0.48633z" fill="#fff"/><path d="m77.962 35.972c-2.2359 8.3478-4.4755 16.695-6.709 25.043 6.2725-6.2738 12.548-12.545 18.818-18.82-3.9761-2.2971-7.953-4.5926-11.93-6.8887-0.0599 0.22201-0.11979 0.44401-0.17969 0.66602z" fill="#f2f2f2"/><path d="m65.568 36.245c2.2359 8.3476 4.4701 16.696 6.707 25.043 2.2967-8.5695 4.5937-17.139 6.8887-25.709h-13.773c0.0592 0.22201 0.11849 0.44401 0.17773 0.66602z" fill="#f9f9f9"/><g><path d="m71.841 29.7c-2.0355 2.2407-4.126 4.4424-6.1271 6.7074-0.11754 0.39492-1.0813 1.5148-0.1586 1.0185 1.1456-0.49146 2.4298-0.16509 3.6428-0.25913h10.346c-2.4385-2.6299-4.8767-5.26-7.3144-7.8906-0.12956 0.14127-0.25911 0.28255-0.38867 0.42383z" fill="#e6e6e6" stop-color="#000000" style="-inkscape-stroke:none;font-variation-settings:normal"/><path d="m86.722 33.442c-3.2324 1.0175-6.4647 2.0356-9.6973 3.0527 4.1924 2.4193 8.3846 4.839 12.576 7.2598-0.77763-3.4952-1.5532-6.9909-2.3301-10.486-0.18295 0.0579-0.36589 0.11588-0.54883 0.17382z" fill="#b3b3b3" stop-color="#000000" style="-inkscape-stroke:none;font-variation-settings:normal"/><path d="m88.365 42.958c2.2193 3.8451 4.4395 7.6897 6.6582 11.535 1.0754-3.4154 2.1492-6.8313 3.2266-10.246-3.4954-0.77689-6.9911-1.5524-10.486-2.3301 0.20052 0.34701 0.40105 0.69401 0.60157 1.041z" fill="#e6e6e6" stop-color="#000000" style="-inkscape-stroke:none;font-variation-settings:normal"/><path d="m94.351 53.186v13.316c2.6398-2.4194 5.2788-4.8397 7.918-7.2598-2.6392-2.4201-5.2782-4.8404-7.918-7.2598v1.2031z" fill="#b3b3b3" stop-color="#000000" style="-inkscape-stroke:none;font-variation-settings:normal"/><path d="m94.421 65.036c-2.2195 3.8443-4.4379 7.6893-6.6582 11.533 3.4952-0.77764 6.9909-1.5532 10.486-2.3301-1.0773-3.4148-2.1511-6.8307-3.2266-10.246-0.20052 0.34766-0.40104 0.69532-0.60156 1.043z" fill="#e6e6e6" stop-color="#000000" style="-inkscape-stroke:none;font-variation-settings:normal"/><path d="m88.56 75.333c-3.8451 2.2193-7.6897 4.4395-11.535 6.6582 3.4154 1.0754 6.8313 2.1492 10.246 3.2266 0.77688-3.4954 1.5524-6.9911 2.3301-10.486-0.347 0.20052-0.69401 0.40104-1.041 0.60156z" fill="#b3b3b3" stop-color="#000000" style="-inkscape-stroke:none;font-variation-settings:normal"/><path d="m65.827 82.206c2.1491 2.3437 4.2979 4.6877 6.4473 7.0312 2.4201-2.6392 4.8404-5.2782 7.2598-7.918h-14.52c0.27083 0.29557 0.54166 0.59114 0.8125 0.88672z" fill="#e6e6e6" stop-color="#000000" style="-inkscape-stroke:none;font-variation-settings:normal"/><path d="m55.21 75.907c0.68946 3.1035 1.3788 6.207 2.0684 9.3105 3.4148-1.0773 6.8307-2.1511 10.246-3.2266-4.1924-2.4193-8.3846-4.839-12.576-7.2598 0.0872 0.39192 0.17448 0.78385 0.26172 1.1758z" fill="#b3b3b3" stop-color="#000000" style="-inkscape-stroke:none;font-variation-settings:normal"/><path d="m49.165 65.141c-0.95098 3.0161-1.8982 6.0335-2.8516 9.0488 3.4925 0.79419 6.9844 1.5909 10.477 2.3867-2.4212-4.1947-4.8432-8.3889-7.2637-12.584-0.12045 0.38282-0.24089 0.76563-0.36133 1.1484z" fill="#e6e6e6" stop-color="#000000" style="-inkscape-stroke:none;font-variation-settings:normal"/><path d="m49.312 52.796c-2.3437 2.1491-4.6877 4.2979-7.0312 6.4473 2.6392 2.4201 5.2782 4.8404 7.918 7.2598v-14.52c-0.29557 0.27083-0.59115 0.54167-0.88672 0.8125z" fill="#b3b3b3" stop-color="#000000" style="-inkscape-stroke:none;font-variation-settings:normal"/><path d="m55.271 41.328c-3.0867 0.68508-6.1725 1.374-9.2598 2.0566 1.0574 3.4216 2.1135 6.8437 3.1699 10.266 2.4232-4.1939 4.8426-8.39 7.2656-12.584-0.39193 0.0872-0.78386 0.17448-1.1758 0.26172z" fill="#e6e6e6"/><path d="m57.154 33.829c-0.73515 3.3086-1.469 6.6174-2.2051 9.9258 4.1659-2.4069 8.3345-4.8092 12.5-7.2168-3.3902-1.0912-6.7797-2.1842-10.17-3.2754-0.0417 0.1888-0.0833 0.3776-0.125 0.5664z" fill="#b3b3b3"/></g><g><path d="m60.665 18.02c-1.206 5.4264-2.4097 10.853-3.6172 16.279 3.0876 0.99574 6.1757 1.99 9.2637 2.9844 2.2144-2.4087 4.427-4.8191 6.6406-7.2285-4.0235-4.3392-8.0461-8.6792-12.068-13.02-0.0729 0.32813-0.14584 0.65625-0.21875 0.98438z" fill="#999" stop-color="#000000" style="-inkscape-stroke:none;font-variation-settings:normal"/><path d="m41.814 28.585c-0.48255 0.36449 0.14266 1.001 0.16237 1.4886 1.5632 5.0591 3.1256 10.118 4.6892 15.177 3.1674-0.70702 6.3358-1.4097 9.5039-2.1133 0.70615-3.1831 1.4125-6.3662 2.1211-9.5488-5.4156-1.7454-10.832-3.4876-16.248-5.2324-0.0762 0.0762-0.15234 0.15234-0.22852 0.22851z" fill="#999" stop-color="#000000" style="-inkscape-stroke:none;font-variation-settings:normal"/><path d="m46.911 44.112c-5.6706 1.2581-11.341 2.5189-17.012 3.7754 4.3865 4.0264 8.7766 8.0488 13.164 12.074 2.4025-2.2044 4.807-4.4065 7.209-6.6113-0.95944-3.1159-1.9228-6.2306-2.8848-9.3457-0.15885 0.0358-0.3177 0.0716-0.47656 0.10743z" fill="#ececec"/><path d="m42.706 58.852c-4.226 3.8749-8.4511 7.7508-12.678 11.625 5.7732 1.3172 11.547 2.6305 17.32 3.9492 0.97451-3.0966 1.9494-6.193 2.9258-9.2891-2.4025-2.2057-4.8079-4.4082-7.2109-6.6133-0.11914 0.10938-0.23828 0.21875-0.35742 0.32813z" fill="#ccc" stop-color="#000000" style="-inkscape-stroke:none;font-variation-settings:normal"/><path d="m46.488 73.643c-1.7453 5.5402-3.4866 11.082-5.2344 16.621 5.6782-1.7909 11.358-3.5786 17.037-5.3652-0.70704-3.1829-1.4144-6.3658-2.1211-9.5488-3.1783-0.72479-6.3573-1.4469-9.5352-2.1738-0.0488 0.1556-0.0977 0.3112-0.14649 0.4668z" fill="#999" stop-color="#000000" style="-inkscape-stroke:none;font-variation-settings:normal"/><path d="m66.06 81.345c-3.004 0.94496-6.0071 1.8928-9.0117 2.8359 1.2902 5.8126 2.5828 11.625 3.8711 17.438 4.0264-4.3865 8.0489-8.7766 12.074-13.164-2.205-2.4031-4.4076-4.8084-6.6133-7.2109-0.10677 0.0339-0.21354 0.0677-0.32031 0.10157z" fill="#999" stop-color="#000000" style="-inkscape-stroke:none;font-variation-settings:normal"/><path d="m77.941 81.491c-2.1283 2.3209-4.2561 4.6423-6.3848 6.9629 4.0254 4.3874 8.0478 8.7776 12.074 13.164 1.2882-5.813 2.5809-11.625 3.8711-17.438-3.1113-0.97722-6.2216-1.9574-9.332-2.9375-0.0762 0.0827-0.15234 0.16537-0.22851 0.24805z" fill="#ececec" stop-color="#000000" style="-inkscape-stroke:none;font-variation-settings:normal"/><path d="m97.456 73.333c-3.0254 0.67168-6.0505 1.3449-9.0762 2.0156-0.70585 3.1839-1.4142 6.3672-2.1211 9.5508 5.6796 1.7866 11.359 3.5744 17.037 5.3652-1.7909-5.6782-3.5786-11.358-5.3652-17.037-0.1582 0.0352-0.3164 0.0703-0.47461 0.10547z" fill="#ccc"/><path d="m101.13 58.852c-2.2843 2.0952-4.5701 4.1889-6.8535 6.2852 0.98013 3.1104 1.9603 6.2207 2.9375 9.332 5.8125-1.2902 11.625-2.5828 17.438-3.8711-4.3865-4.0264-8.7766-8.0488-13.164-12.074-0.11914 0.10938-0.23828 0.21875-0.35742 0.32813z" fill="#999" stop-color="#000000" style="-inkscape-stroke:none;font-variation-settings:normal"/><path d="m97.068 44.479c-0.9312 2.9563-1.8607 5.9132-2.793 8.8691 2.4025 2.2057 4.8079 4.4082 7.2109 6.6133 4.3874-4.0254 8.7776-8.0478 13.164-12.074-5.813-1.2882-11.625-2.5809-17.438-3.8711-0.0482 0.1543-0.0964 0.3086-0.14453 0.46289z" fill="#999" stop-color="#000000" style="-inkscape-stroke:none;font-variation-settings:normal"/><path d="m102.33 28.528c-5.3562 1.6858-10.712 3.3746-16.068 5.0586 0.7069 3.1836 1.4152 6.3669 2.1211 9.5508 3.1839 0.70585 6.3672 1.4142 9.5508 2.1211 1.7866-5.6796 3.5744-11.359 5.3652-17.037-0.32292 0.10221-0.64584 0.20443-0.96875 0.30664z" fill="#ececec"/><path d="m82.943 17.616c-3.8105 4.1478-7.6212 8.2955-11.432 12.443 2.2209 2.3938 4.4396 4.7896 6.6602 7.1836 3.1094-0.98124 6.2195-1.9601 9.3301-2.9375-1.2902-5.8125-2.5828-11.625-3.8711-17.438-0.22917 0.24935-0.45833 0.4987-0.6875 0.74805z" fill="#ccc"/></g><path d="m60.947 17.518c-6.6846 3.8599-13.371 7.7185-20.055 11.58 5.7228 1.8421 11.445 3.6854 17.168 5.5274 1.3062-5.9089 2.6332-11.814 3.9297-17.725-0.34766 0.20573-0.69532 0.41146-1.043 0.61719z" fill="#ccc"/><path d="m41.925 28.503c-0.60848 0.40495-0.7856 1.2444-1.2204 1.8244-3.5868 6.2114-7.1727 12.423-10.76 18.635 5.9191-1.3147 11.838-2.63 17.758-3.9414-1.7358-5.615-3.4692-11.231-5.2051-16.846-0.19076 0.10937-0.38151 0.21875-0.57227 0.32812z" fill="#fff"/><path d="m30.476 48.184v23.324c4.4531-4.0929 8.9148-8.1762 13.371-12.266-4.457-4.0873-8.9134-8.1752-13.371-12.262v1.2031z" fill="#f9f9f9"/><path d="m30.771 69.798c-0.76006 0.33608-0.10456 0.88734 0.12541 1.3738 3.7699 6.5298 7.541 13.059 11.31 19.589 1.8211-5.7825 3.639-11.566 5.4629-17.348-5.5648-1.2669-11.129-2.5355-16.693-3.8047-0.0684 0.0632-0.13671 0.1263-0.20507 0.18945z" fill="#f9f9f9"/><path d="m57.511 84.036c-5.5847 1.7584-11.169 3.5175-16.754 5.2754 7.0793 4.0864 14.158 8.1739 21.236 12.262-1.3124-5.9034-2.622-11.807-3.9336-17.711-0.18294 0.0579-0.36589 0.11588-0.54883 0.17382z" fill="#ccc"/><path d="m71.884 88.097c-3.9569 4.3152-7.9148 8.6295-11.871 12.945h24.523c-4.0865-4.4577-8.1744-8.9141-12.262-13.371-0.13021 0.14193-0.26041 0.28385-0.39062 0.42578z" fill="#fff"/><path d="m86.365 84.425c-1.2697 5.7161-2.5379 11.433-3.8086 17.148 7.0785-4.0878 14.157-8.1753 21.236-12.262-5.7677-1.8162-11.536-3.6311-17.303-5.4492-0.0417 0.1875-0.0833 0.375-0.125 0.5625z" fill="#f9f9f9"/><path d="m113.43 69.786c-5.5117 1.224-11.023 2.4478-16.535 3.6719 1.8182 5.767 3.6331 11.535 5.4492 17.303 4.0864-7.0793 8.1739-14.158 12.262-21.236-0.39193 0.0872-0.78386 0.17448-1.1758 0.26172z" fill="#f9f9f9"/><path d="m113.19 47.794c-4.1614 3.8164-8.3231 7.6326-12.484 11.449 4.457 4.0873 8.9134 8.1752 13.371 12.262v-24.523c-0.29557 0.27083-0.59115 0.54166-0.88672 0.8125z" fill="#ccc"/><path d="m101.98 28.874c-1.6963 5.3847-3.3901 10.77-5.0879 16.154 5.9036 1.3116 11.808 2.6212 17.711 3.9336-4.0878-7.0784-8.1753-14.157-12.262-21.236-0.12044 0.38281-0.24088 0.76562-0.36133 1.1484z" fill="#fff"/><path d="m82.818 18.089c1.224 5.5117 2.4477 11.023 3.6719 16.535 5.767-1.8181 11.535-3.6331 17.303-5.4492-7.0793-4.0864-14.158-8.1739-21.236-12.262 0.0872 0.39192 0.17448 0.78385 0.26172 1.1758z" fill="#f9f9f9"/><path d="m60.699 17.862c-0.29616 0.6375 0.54766 0.963 0.84154 1.4395 3.5645 3.8457 7.1295 7.6909 10.694 11.537 4.1008-4.4656 8.2034-8.9294 12.305-13.395h-23.748c-0.0306 0.13932-0.0612 0.27864-0.0918 0.41797z" fill="#f9f9f9"/><g stop-color="#000000" style="-inkscape-stroke:none;font-variation-settings:normal"><path d="m48.294 18.239c-2.4296 4.2084-4.8599 8.4163-7.2891 12.625 7.4429-4.2966 14.886-8.593 22.328-12.891h-14.885c-0.0514 0.0885-0.10286 0.17709-0.1543 0.26563z" fill="#e6e6e6" stop-color="#000000" style="-inkscape-stroke:none;font-variation-settings:normal"/><path d="m42.187 28.96c-3.7271 2.1526-7.4552 4.3033-11.182 6.457v14.885c4.2976-7.4423 8.5941-14.885 12.891-22.328-0.56967 0.32878-1.1393 0.65756-1.709 0.98633z" fill="#ccc" stop-color="#000000" style="-inkscape-stroke:none;font-variation-settings:normal"/><path d="m31.076 48.063c-2.1517 3.7265-4.3032 7.4532-6.4551 11.18 2.4813 4.2968 4.9616 8.5941 7.4434 12.891 0-8.5938 1e-5 -17.188 0-25.781-0.32942 0.57031-0.65885 1.1406-0.98828 1.7109z" fill="#e6e6e6" stop-color="#000000" style="-inkscape-stroke:none;font-variation-settings:normal"/><path d="m31.005 70.159v12.91c4.2961 2.4824 8.5936 4.9626 12.891 7.4434-4.2966-7.4429-8.593-14.886-12.891-22.328v1.9746z" fill="#ccc" stop-color="#000000" style="-inkscape-stroke:none;font-variation-settings:normal"/><path d="m41.992 89.331c2.1526 3.7271 4.3033 7.4552 6.457 11.182h14.885c-7.4423-4.2976-14.885-8.5941-22.328-12.891 0.32878 0.56966 0.65755 1.1393 0.98633 1.709z" fill="#e6e6e6" stop-color="#000000" style="-inkscape-stroke:none;font-variation-settings:normal"/><path d="m61.095 100.44c3.7266 2.1517 7.4532 4.3032 11.18 6.4551 4.2968-2.4813 8.5941-4.9616 12.891-7.4434h-25.781c0.57031 0.32942 1.1406 0.65885 1.7109 0.98828z" fill="#ccc" stop-color="#000000" style="-inkscape-stroke:none;font-variation-settings:normal"/><path d="m101.84 88.608c-6.873 3.9682-13.747 7.9354-20.619 11.904h14.885c2.4824-4.2961 4.9626-8.5936 7.4434-12.891-0.56966 0.32878-1.1393 0.65755-1.709 0.98633z" fill="#e6e6e6" stop-color="#000000" style="-inkscape-stroke:none;font-variation-settings:normal"/><path d="m112.56 69.895c-3.9674 6.8724-7.9353 13.745-11.902 20.617 4.2971-2.4808 8.5945-4.9609 12.891-7.4434v-14.885c-0.32943 0.57031-0.65885 1.1406-0.98828 1.7109z" fill="#ccc" stop-color="#000000" style="-inkscape-stroke:none;font-variation-settings:normal"/><path d="m112.49 48.327v23.807c2.4817-4.2965 4.962-8.5939 7.4434-12.891-2.4813-4.2967-4.9616-8.5941-7.4434-12.891v1.9746z" fill="#e6e6e6" stop-color="#000000" style="-inkscape-stroke:none;font-variation-settings:normal"/><path d="m101.64 29.682c3.9682 6.873 7.9354 13.747 11.904 20.619v-14.885c-4.2961-2.4824-8.5936-4.9626-12.891-7.4434 0.32877 0.56966 0.65755 1.1393 0.98633 1.709z" fill="#ccc" stop-color="#000000" style="-inkscape-stroke:none;font-variation-settings:normal"/><path d="m82.927 18.962c6.8724 3.9674 13.745 7.9353 20.617 11.902-2.4808-4.2971-4.9609-8.5945-7.4434-12.891h-14.885c0.57031 0.32943 1.1406 0.65886 1.7109 0.98828z" fill="#e6e6e6" stop-color="#000000" style="-inkscape-stroke:none;font-variation-settings:normal"/><path d="m72.011 11.741c-4.209 2.4304-8.4183 4.8601-12.627 7.291h25.781c-4.2965-2.4817-8.5939-4.962-12.891-7.4434-0.0879 0.0508-0.17578 0.10156-0.26367 0.15234z" fill="#ccc" stop-color="#000000" style="-inkscape-stroke:none;font-variation-settings:normal"/></g><g stop-color="#000000" style="-inkscape-stroke:none;font-variation-settings:normal"><path d="m31.005 18.503v18.135c3.9445-2.2764 7.889-4.553 11.832-6.832 2.279-3.943 4.5556-7.8875 6.832-11.832h-18.664v0.5293z" fill="#b3b3b3" stop-color="#000000" style="-inkscape-stroke:none;font-variation-settings:normal"/><path d="m31.271 35.263c-5.1236 2.9585-10.248 5.9157-15.371 8.875 3.1104 5.3882 6.2213 10.776 9.332 16.164 2.2775-3.944 4.5541-7.8884 6.832-11.832 0-4.5547 1e-5 -9.1094 0-13.664-0.26432 0.15235-0.52864 0.30469-0.79296 0.45704z" fill="#f2f2f2" stop-color="#000000" style="-inkscape-stroke:none;font-variation-settings:normal"/><path d="m24.773 58.979c-2.9576 5.1231-5.9156 10.246-8.873 15.369 5.3876 3.1114 10.775 6.2224 16.164 9.332 1e-5 -4.5547 1e-5 -9.1094 0-13.664-2.2779-3.9437-4.5546-7.8881-6.832-11.832-0.15299 0.26497-0.30599 0.52995-0.45898 0.79492z" fill="#b3b3b3" stop-color="#000000" style="-inkscape-stroke:none;font-variation-settings:normal"/><path d="m31.005 82.764v17.748h18.664c-2.2764-3.9445-4.553-7.889-6.832-11.832-3.943-2.279-7.8875-4.5556-11.832-6.832v0.91602z" fill="#f2f2f2" stop-color="#000000" style="-inkscape-stroke:none;font-variation-settings:normal"/><path d="m48.294 100.25c2.9585 5.1236 5.9157 10.248 8.875 15.371 5.3882-3.1104 10.776-6.2213 16.164-9.332-3.944-2.2775-7.8884-4.5541-11.832-6.832h-13.664c0.15235 0.26432 0.30469 0.52864 0.45703 0.79297z" fill="#b3b3b3" stop-color="#000000" style="-inkscape-stroke:none;font-variation-settings:normal"/><path d="m82.927 99.524c-3.9036 2.2539-7.8073 4.5078-11.711 6.7617 5.388 3.1107 10.776 6.2216 16.164 9.332 3.1114-5.3876 6.2224-10.775 9.332-16.164h-13.664l-0.0865 0.0502z" fill="#f2f2f2" stop-color="#000000" style="-inkscape-stroke:none;font-variation-settings:normal"/><path d="m112.75 82.306c-3.6795 2.1253-7.3604 4.2482-11.039 6.375-2.279 3.9431-4.5556 7.8875-6.832 11.832h18.664v-18.664c-0.26432 0.15235-0.52864 0.30469-0.79297 0.45703z" fill="#b3b3b3" stop-color="#000000" style="-inkscape-stroke:none;font-variation-settings:normal"/><path d="m118.86 58.979c-2.1244 3.679-4.2481 7.3584-6.373 11.037v13.664c5.3886-3.1097 10.776-6.2206 16.164-9.332-3.1104-5.3882-6.2213-10.776-9.332-16.164-0.153 0.26497-0.30599 0.52995-0.45899 0.79492z" fill="#f2f2f2" stop-color="#000000" style="-inkscape-stroke:none;font-variation-settings:normal"/><path d="m112.49 35.722v12.748c2.2779 3.9437 4.5546 7.8881 6.832 11.832 3.1107-5.388 6.2216-10.776 9.332-16.164-5.3876-3.1114-10.775-6.2224-16.164-9.332v0.91602z" fill="#b3b3b3" stop-color="#000000" style="-inkscape-stroke:none;font-variation-settings:normal"/><path d="m95.337 18.766c2.1253 3.6795 4.2482 7.3604 6.375 11.039 3.9431 2.279 7.8875 4.5556 11.832 6.832v-18.664h-18.664c0.15235 0.26433 0.30469 0.52865 0.45703 0.79297z" fill="#f2f2f2" stop-color="#000000" style="-inkscape-stroke:none;font-variation-settings:normal"/><path d="m86.923 3.1317c-5.2357 3.0228-10.471 6.0455-15.707 9.0684 3.9439 2.2774 7.8884 4.5541 11.832 6.832h13.664c-3.1097-5.3886-6.2206-10.776-9.332-16.164-0.15234 0.0879-0.30469 0.17579-0.45703 0.26368z" fill="#b3b3b3" stop-color="#000000" style="-inkscape-stroke:none;font-variation-settings:normal"/><path d="m56.904 3.327c-3.022 5.2351-6.0454 10.469-9.0664 15.705h13.664c3.9437-2.2779 7.8881-4.5546 11.832-6.832-5.388-3.1107-10.776-6.2216-16.164-9.332-0.0885 0.153-0.17708 0.30599-0.26562 0.45899z" fill="#f2f2f2" stop-color="#000000" style="-inkscape-stroke:none;font-variation-settings:normal"/></g><g stop-color="#000000" style="-inkscape-stroke:none;font-variation-settings:normal"><path d="m55.609-2.8996c-3.365 0.94631-6.6749 2.092-9.856 3.546-3.4096 1.5413-6.6811 3.3865-9.7718 5.4965-3.0905 2.1099-5.9952 4.4916-8.6713 7.1081-0.26813 0.40447-1.3267 0.79491-0.56105 1.2155 1.5226 1.5217 3.0429 3.0456 4.5673 4.5655h17.742c2.9591-5.1216 5.9151-10.245 8.873-15.367-0.59978-2.2402-1.2002-4.4802-1.7988-6.7207-0.17447 0.0521-0.34895 0.10416-0.52343 0.15625z" fill="#fff" stop-color="#000000" style="-inkscape-stroke:none;font-variation-settings:normal"/><path d="m26.771 13.761c-2.4181 2.4766-4.6932 5.0949-6.7022 7.9162-2.1877 3.0353-4.1071 6.2646-5.7305 9.6361-1.6457 3.3979-2.9785 6.9465-4.0012 10.581-0.0309 0.48454-0.75215 1.3562 0.12207 1.3353 2.0792 0.55663 4.1585 1.113 6.2376 1.67 5.1223-2.9579 10.246-5.914 15.367-8.873 0-5.9141 1e-5 -11.828 0-17.742-1.6383-1.6416-3.2784-3.2815-4.9199-4.9199-0.12435 0.13216-0.24869 0.26432-0.37304 0.39648z" fill="#e6e6e6" stop-color="#000000" style="-inkscape-stroke:none;font-variation-settings:normal"/><path d="m10.126 42.604c-1.1122 4.2258-1.8411 8.5509-2.1069 12.914-0.29317 4.9072 3e-3 9.8497 0.86148 14.689 0.34159 2.0915 0.87244 4.1421 1.3724 6.1996 2.2403-0.5962 4.4789-1.199 6.7188-1.7969 2.9554-5.1234 5.9142-10.245 8.8711-15.367-2.9569-5.1224-5.9157-10.244-8.8711-15.367-2.2399-0.59792-4.4784-1.2007-6.7188-1.7969-0.0423 0.17513-0.0846 0.35026-0.12695 0.52539z" fill="#ccc" stop-color="#000000" style="-inkscape-stroke:none;font-variation-settings:normal"/><path d="m16.486 73.643c-2.17 0.58058-4.3396 1.1624-6.5098 1.7422 0.97148 3.4073 2.0661 6.7868 3.5443 10.012 1.2794 2.9048 2.7926 5.7097 4.5009 8.3846 2.0065 3.1586 4.2878 6.1445 6.8205 8.8987 0.76732 0.81379 1.5358 1.6265 2.3023 2.4411 1.6416-1.6384 3.2816-3.2783 4.9199-4.9199 1e-5 -5.9141 0-11.828 0-17.742-5.1216-2.9591-10.245-5.9151-15.367-8.873-0.0703 0.0189-0.14063 0.0378-0.21094 0.0567z" fill="#ececec" stop-color="#000000" style="-inkscape-stroke:none;font-variation-settings:normal"/><path d="m31.16 99.608c-1.5876 1.5888-3.1777 3.1752-4.7637 4.7656 2.4985 2.4149 5.0768 4.7586 7.9116 6.7767 2.578 1.9088 5.3208 3.5973 8.1607 5.0864 3.3456 1.7496 6.8435 3.2119 10.446 4.3408 1.0727 0.32129 2.145 0.64392 3.218 0.96418 0.59866-2.2405 1.1991-4.4805 1.7988-6.7207-2.9579-5.1223-5.914-10.246-8.873-15.367h-17.742c-0.0521 0.0514-0.10417 0.10286-0.15625 0.15429z" fill="#fff" stop-color="#000000" style="-inkscape-stroke:none;font-variation-settings:normal"/><path d="m72.011 105.83c-5.0347 2.906-10.068 5.8142-15.104 8.7188-0.59791 2.2399-1.2006 4.4784-1.7969 6.7188 4.175 1.0879 8.4305 1.9041 12.742 2.177 5.0354 0.38808 10.116 0.0913 15.092-0.74908 2.1897-0.36053 4.3414-0.89687 6.4944-1.4279-0.59619-2.2403-1.199-4.4789-1.7969-6.7188-5.1234-2.9554-10.245-5.9142-15.367-8.8711-0.0879 0.0508-0.17578 0.10156-0.26367 0.15234z" fill="#e6e6e6" stop-color="#000000" style="-inkscape-stroke:none;font-variation-settings:normal"/><path d="m95.337 99.72c-2.9062 5.0339-5.8125 10.068-8.7188 15.102 0.59979 2.2402 1.2002 4.4802 1.7988 6.7207 3.4073-0.97147 6.7868-2.066 10.012-3.5443 2.9048-1.2794 5.7097-2.7926 8.3846-4.5009 3.1586-2.0065 6.1445-4.2878 8.8986-6.8205 0.81379-0.76733 1.6265-1.5358 2.4411-2.3023-1.6384-1.6416-3.2783-3.2816-4.9199-4.9199h-17.742c-0.0514 0.0885-0.10287 0.17708-0.1543 0.26562z" fill="#ccc" stop-color="#000000" style="-inkscape-stroke:none;font-variation-settings:normal"/><path d="m127.66 73.696c-5.0591 2.9215-10.119 5.841-15.178 8.7637v17.742c1.6383 1.6417 3.2784 3.2815 4.9199 4.9199 2.4149-2.4985 4.7586-5.0768 6.7767-7.9116 1.9087-2.5781 3.5975-5.3207 5.0862-8.1608 1.7484-3.3462 3.2128-6.8431 4.3409-10.446 0.32129-1.0727 0.64392-2.145 0.96418-3.218-2.2405-0.59866-4.4805-1.199-6.7207-1.7988-0.0631 0.0365-0.1263 0.0729-0.18945 0.10938z" fill="#ececec" stop-color="#000000" style="-inkscape-stroke:none;font-variation-settings:normal"/><path d="m133.81 42.206c-2.0782 0.55651-4.156 1.114-6.2344 1.6699-2.9554 5.1234-5.9142 10.245-8.8711 15.367 2.9569 5.1225 5.9157 10.244 8.8711 15.367 2.2399 0.59792 4.4784 1.2007 6.7188 1.7969 1.0879-4.175 1.9041-8.4305 2.177-12.742 0.38197-5.0359 0.10877-10.118-0.72388-15.096-0.35342-2.1931-0.88639-4.3478-1.4141-6.5038-0.17448 0.0469-0.34896 0.0937-0.52344 0.14063z" fill="#fff" stop-color="#000000" style="-inkscape-stroke:none;font-variation-settings:normal"/><path d="m117.05 13.718c-1.5212 1.5225-3.0449 3.0423-4.5644 4.5664v17.742c5.1216 2.9591 10.245 5.9151 15.367 8.873 2.2531-0.60476 4.5072-1.2059 6.7598-1.8125-0.96505-3.3749-2.0423-6.7256-3.5037-9.9226-1.2856-2.9423-2.8168-5.7794-4.5432-8.4859-2.0058-3.1612-4.2916-6.1463-6.8246-8.9024-0.76798-0.81445-1.5372-1.6278-2.3042-2.4431-0.12891 0.12825-0.25781 0.25651-0.38672 0.38476z" fill="#e6e6e6" stop-color="#000000" style="-inkscape-stroke:none;font-variation-settings:normal"/><path d="m88.288-2.5675c-0.55668 2.0775-1.113 4.155-1.6699 6.2324 2.9579 5.1223 5.914 10.246 8.873 15.367h17.742c1.6521-1.6487 3.3024-3.2992 4.9512-4.9512-2.4999-2.4161-5.0794-4.7613-7.9154-6.7808-2.5797-1.9105-5.3246-3.6003-8.1669-5.0897-3.3487-1.7488-6.8487-3.2122-10.454-4.341-1.0726-0.32143-2.1453-0.64291-3.218-0.96431-0.0475 0.17579-0.095 0.35157-0.14258 0.52735z" fill="#ccc" stop-color="#000000" style="-inkscape-stroke:none;font-variation-settings:normal"/><path d="m68.919-5.0421c-4.3381 0.2662-8.6508 0.92656-12.855 2.033-0.6478 0.0816-1.2011 0.21972-0.76276 0.94731 0.53539 2.0007 1.0716 4.0012 1.6065 6.0021 5.1234 2.9554 10.245 5.9142 15.367 8.8711 5.1225-2.9569 10.244-5.9157 15.367-8.8711 0.60288-2.2528 1.2064-4.5054 1.8106-6.7578-4.18-1.0808-8.4411-1.8862-12.756-2.1488-2.587-0.20731-5.186-0.18216-7.7774-0.0758z" fill="#ececec" stop-color="#000000" style="-inkscape-stroke:none;font-variation-settings:normal"/></g></g><g fill="#ffc819" stroke-width="0"><path d="m150.92 52.229c-4.899-4.1767-12.139-4.1767-17.038-1e-6 -0.44467 0.37911-1.1122 1.053-1.5255 1.4663l-14.289 14.289a5.0271 5.0271 90 0 0 0 7.1094l14.289 14.289c0.4133 0.4133 1.0809 1.0872 1.5256 1.4663 4.8991 4.1768 12.139 4.1767 17.038-3.44e-4 0.44465-0.37913 1.116-1.0505 1.4951-1.4952 4.1767-4.899 4.1767-12.139 0-17.038-0.37912-0.44467-0.37911-1.1097 0-1.5544 4.1767-4.899 4.1767-12.139 0-17.038-0.37912-0.44467-1.0505-1.116-1.4951-1.4951z" stop-color="#000000" style="-inkscape-stroke:none;font-variation-settings:normal"/><path d="m-9.4455 52.229c4.899-4.1767 12.139-4.1767 17.038-1e-6 0.44467 0.37911 1.1122 1.053 1.5255 1.4663l14.289 14.289a5.0271 5.0271 90 0 1-2e-6 7.1094l-14.289 14.289c-0.4133 0.4133-1.0809 1.0872-1.5256 1.4663-4.8991 4.1768-12.139 4.1767-17.038-3.44e-4 -0.44465-0.37913-1.116-1.0505-1.4951-1.4952-4.1767-4.899-4.1767-12.139 7e-6 -17.038 0.37911-0.44467 0.37911-1.1097-7e-6 -1.5544-4.1767-4.899-4.1767-12.139 8e-6 -17.038 0.37911-0.44467 1.0505-1.116 1.4951-1.4951z" stop-color="#000000" style="-inkscape-stroke:none;font-variation-settings:normal"/></g><g transform="translate(-5.2384 -5.0403)"><text transform="translate(-49.964 23.507)" x="64.000008" y="63.999916" display="none" fill="#000000" font-family="Verdana" font-size="50.8px" stop-color="#000000" stroke-width="0" style="inline-size:264.175;white-space:pre" xml:space="preserve"/></g><rect x="164.49" y="41.606" width="248.54" height="58.264" fill="url(#a)" stop-color="#000000" stroke-width="0" style="-inkscape-stroke:none;font-variation-settings:normal"/><path d="m226.32 127.6-5.2302-0.36205-9.4144-2.2573-8.3684-4.0682-6.9023-5.7215-2.1366-3.1996-2.1366-3.1995-1.0688-2.8565-1.0687-2.8565-1.0988-6.878 0.30671-0.49624 0.30669-0.49624h18.277l0.18741 0.65377 0.18741 0.65379 0.91304 2.6151 0.91301 2.6151 2.7031 2.6571 2.703 2.6572 5.7158 2.7965 8.1802 1.5651 6.4457-0.018 7.297-1.5458 2.7814-1.4073 2.7814-1.4073 2.0474-2.2212 2.0474-2.2212 1.6126-3.8595-4e-3 -2.682-4e-3 -2.682-1.2462-2.6763-1.2462-2.6763-3.5122-2.6347-4.1968-2.1059-7.3096-2.1829-17.783-3.6947-8.3684-2.7421-2.6151-1.305-2.6151-1.3051-4.1842-2.8782-4.9156-5.0003-1.5793-2.963-1.5793-2.963-0.80085-3.0746-0.80061-3.0746v-8.9748l0.80045-3.1173 0.80046-3.1173 1.374-2.8766 1.374-2.8766 8.5914-8.5408 9.811-4.7336 6.4274-1.6318 10.832-1.1148 8.8914 0.70003 7.093 1.4533 7.6098 2.9549 5.8911 3.9103 6.3509 6.7891 1.5787 3.1273 1.5786 3.1273 0.72322 2.9941 0.7232 2.9941 0.29862 2.4843 0.29859 2.4844h-19.331v-2.0528l-2.1174-5.6593-4.7622-4.6951-2.2071-1.1022-2.2071-1.1023-3.3749-0.86459-3.3749-0.86462-9.9381 0.51187-3.0329 1.0847-3.0329 1.0846-4.8898 3.5124-1.4522 2.7798-1.4522 2.7798 0.011 2.6861 0.011 2.6861 0.95281 2.0921 0.9528 2.0921 4.2474 3.8294 2.5345 1.1259 2.5345 1.1259 7.3223 1.9988 15.691 3.214 8.8683 2.6725 4.3333 2.138 4.3333 2.1381 5.6102 5.0003 1.6889 2.6319 1.6889 2.6319 2.0453 6.5358 0.0154 5.4971 0.0154 5.4971-0.86656 3.3441-0.86653 3.3441-1.0988 2.3375-1.0987 2.3375-4.0094 5.3628-6.0137 5.031-8.3885 4.0946-8.3482 2.1186-9.4144 0.57427-2.6151 0.2756-5.2302-0.36205zm62.501-55.967v-54.434l50.995 0.42906 9.9374 2.7215 6.1107 2.7107 5.3957 3.4651 5.4957 4.7076 5.4004 6.7042 4.964 10.46 2.1579 8.8914 0.60072 4.9687 0.60075 4.9687-0.30616 7.3223-0.30618 7.3223-0.80121 4.0821-0.80118 4.082-2.6972 8.0349-4.1495 7.9759-6.2938 7.477-7.0025 5.3104-8.3684 4.0375-8.3683 2.1337-3.6612 0.52053-3.6612 0.52051-45.241 0.022zm48.379 36.409 3.1381-0.89537 3.6606-1.9156 3.6606-1.9155 5.8851-5.9732 4.2197-8.6714 0.8812-3.3996 0.88117-3.3996 0.26367-8.3683 0.26368-8.3684-1.0796-5.2302-1.0796-5.2302-4.2304-8.5497-3.0089-3.056-3.0089-3.056-4.8081-2.8177-8.2534-2.8608-25.89-0.42509v75.528l25.367-0.5002zm58.317-36.369v-54.394h19.875v44.98h52.302v-44.98h19.88l-0.26634 108.53-19.613 0.28442v-47.095h-52.302v47.072h-19.875z" fill="#fff" stroke-width=".52302"/></g></svg>
